<svg version="1.1" baseProfile="full" xmlns="http://www.w3.org/2000/svg" xmlns:xlink="http://www.w3.org/1999/xlink" xmlns:ev="http://www.w3.org/2001/xml-events" width="32" height="33" viewBox="0 0 32 33"><g id="add_contact" ><path fill-rule="evenodd"  fill="rgb( 165, 165, 165 )" d="M30.637,8.460 C30.637,8.460 26.782,8.460 26.782,8.460 C26.782,8.460 26.782,12.316 26.782,12.316 C26.782,12.742 26.436,13.087 26.010,13.087 C26.010,13.087 24.468,13.087 24.468,13.087 C24.042,13.087 23.697,12.742 23.697,12.316 C23.697,12.316 23.697,8.460 23.697,8.460 C23.697,8.460 19.841,8.460 19.841,8.460 C19.416,8.460 19.070,8.115 19.070,7.689 C19.070,7.689 19.070,6.147 19.070,6.147 C19.070,5.721 19.416,5.376 19.841,5.376 C19.841,5.376 23.697,5.376 23.697,5.376 C23.697,5.376 23.697,1.520 23.697,1.520 C23.697,1.094 24.042,0.749 24.468,0.749 C24.468,0.749 26.010,0.749 26.010,0.749 C26.436,0.749 26.782,1.094 26.782,1.520 C26.782,1.520 26.782,5.376 26.782,5.376 C26.782,5.376 30.637,5.376 30.637,5.376 C31.063,5.376 31.408,5.721 31.408,6.147 C31.408,6.147 31.408,7.689 31.408,7.689 C31.408,8.115 31.063,8.460 30.637,8.460 ZM11.359,23.225 C8.353,23.225 5.916,19.569 5.916,15.060 C5.916,12.054 8.353,9.617 11.359,9.617 C14.365,9.617 16.802,12.054 16.802,15.060 C16.802,19.569 14.365,23.225 11.359,23.225 ZM22.245,31.368 C22.245,31.576 22.245,32.751 22.245,32.751 C22.245,32.751 0.473,32.751 0.473,32.751 C0.473,32.751 0.473,31.576 0.473,31.368 C0.473,28.374 5.346,25.947 11.359,25.947 C17.371,25.947 22.245,28.374 22.245,31.368 Z"/></g></svg>