<svg version="1.1" baseProfile="full" xmlns="http://www.w3.org/2000/svg" xmlns:xlink="http://www.w3.org/1999/xlink" xmlns:ev="http://www.w3.org/2001/xml-events" width="11" height="19" viewBox="0 0 11 19"><g id="arrow_right" ><path fill-rule="evenodd" d="M0.687,0.439 C1.273,-0.146 2.222,-0.146 2.808,0.439 C2.808,0.439 10.309,7.940 10.309,7.940 C10.895,8.525 10.895,9.475 10.309,10.061 C10.309,10.061 2.808,17.561 2.808,17.561 C2.222,18.146 1.273,18.146 0.687,17.561 C0.394,17.268 0.248,16.884 0.248,16.500 C0.248,16.116 0.394,15.732 0.687,15.440 C0.687,15.440 7.127,9.000 7.127,9.000 C7.127,9.000 0.687,2.561 0.687,2.561 C0.101,1.975 0.101,1.026 0.687,0.439 Z"/></g></svg>