<svg version="1.1" baseProfile="full" xmlns="http://www.w3.org/2000/svg" xmlns:xlink="http://www.w3.org/1999/xlink" xmlns:ev="http://www.w3.org/2001/xml-events" width="13" height="18" viewBox="0 0 13 18"><g id="arrow_show_slide" ><path fill-rule="evenodd" d="M11.780,9.757 C11.780,9.757 4.256,17.634 4.256,17.634 C3.831,18.077 3.142,18.077 2.721,17.634 C2.721,17.634 1.185,16.024 1.185,16.024 C0.759,15.581 0.759,14.862 1.185,14.416 C1.185,14.416 6.401,8.950 6.401,8.950 C6.401,8.950 1.246,3.547 1.246,3.547 C0.821,3.104 0.821,2.384 1.246,1.941 C1.246,1.941 2.782,0.331 2.782,0.331 C3.203,-0.117 3.892,-0.117 4.318,0.331 C4.318,0.331 11.780,8.147 11.780,8.147 C12.202,8.590 12.202,9.310 11.780,9.757 Z"/></g></svg>