<?xml version="1.0" encoding="iso-8859-1"?>
<!-- Generator: Adobe Illustrator 16.0.0, SVG Export Plug-In . SVG Version: 6.00 Build 0)  -->
<!DOCTYPE svg PUBLIC "-//W3C//DTD SVG 1.1//EN" "http://www.w3.org/Graphics/SVG/1.1/DTD/svg11.dtd">
<svg version="1.1" id="Capa_1" xmlns="http://www.w3.org/2000/svg" xmlns:xlink="http://www.w3.org/1999/xlink"  
	 width="40" height="30" viewBox="0 0 40 30"  
	 xml:space="preserve">
<g id="client" >
	<g transform="matrix(.32,0,0,.28,0,0)">
		<circle cx="20.293" cy="35.966" r="9.56"/>
		<path d="M38.888,77.026c-0.257-2.213-2.131-3.881-4.357-3.881h-0.002l-7.604,0.006V62.702c2.551,2.236,5.436,3.646,9.202,3.646
			c2.298,0,4.927-0.524,8.004-1.703c1.915-0.733,2.872-2.879,2.139-4.793c-0.731-1.914-2.879-2.871-4.792-2.139
			c-7.493,2.87-8.971,1.267-15.554-7.729c-0.014-0.021-0.032-0.033-0.048-0.054c-1.261-1.969-3.472-3.296-5.584-3.813
			c0,0-1.005-0.302-2.076-0.278c-1.025,0.023-2.167,0.263-2.167,0.263l-0.028,0.004c-3.216,0.787-6.641,3.407-6.641,7.339
			l0.002,21.101c0,4.587,4.555,7.424,8.771,7.424c0.235,0,0.471-0.021,0.705-0.037l11.768-0.01l2.51,21.668
			c0.26,2.234,2.157,3.883,4.352,3.883c0.169,0,0.34-0.012,0.513-0.031c2.404-0.277,4.131-2.457,3.852-4.861L38.888,77.026z"/>
		<path d="M29.467,86.897c0-2.049-1.662-3.711-3.713-3.711H7.423V53.75c0-2.049-1.662-3.711-3.712-3.711
			C1.66,50.039,0,51.701,0,53.75v33.147c0,1.359,0.733,2.545,1.823,3.192c-0.708,1.261-1.111,2.714-1.111,4.259v10.377
			c0,1.717,1.391,3.106,3.104,3.106c1.717,0,3.11-1.392,3.11-3.106V94.349c0-1.4,1.14-2.541,2.542-2.541h10.376
			c1.401,0,2.543,1.141,2.543,2.541v10.377c0,1.717,1.391,3.107,3.107,3.107c1.716,0,3.107-1.391,3.107-3.107V94.349
			c0-1.518-0.388-2.945-1.071-4.19C28.683,89.528,29.467,88.304,29.467,86.897z"/>
		<circle cx="103.373" cy="35.966" r="9.56"/>
		<path d="M105.516,81.969c4.219,0,8.771-2.837,8.771-7.424V53.444c0-3.932-3.424-6.552-6.639-7.339l-0.028-0.004
			c0,0-1.144-0.239-2.167-0.263c-1.071-0.023-2.076,0.278-2.076,0.278c-2.111,0.518-4.322,1.845-5.584,3.812
			c-0.016,0.021-0.034,0.033-0.048,0.054c-6.583,8.996-8.062,10.6-15.554,7.729c-1.916-0.732-4.062,0.225-4.795,2.139
			c-0.73,1.914,0.227,4.06,2.142,4.794c3.077,1.178,5.704,1.703,8.004,1.703c3.767,0,6.649-1.41,9.202-3.647v10.45l-7.604-0.006
			c-0.002,0-0.002,0-0.005,0c-2.227,0-4.101,1.668-4.354,3.881l-2.963,25.552c-0.279,2.405,1.445,4.584,3.854,4.862
			c0.171,0.02,0.34,0.029,0.51,0.029c2.195,0,4.092-1.646,4.352-3.882l2.512-21.668l11.768,0.009
			C105.043,81.946,105.279,81.969,105.516,81.969z"/>
		<path d="M123.668,86.897V53.75c0-2.049-1.662-3.711-3.711-3.711c-2.05,0-3.712,1.662-3.712,3.711v29.438H97.914
			c-2.051,0-3.713,1.662-3.713,3.711c0,1.404,0.781,2.629,1.934,3.259c-0.682,1.245-1.068,2.674-1.068,4.19v10.377
			c0,1.717,1.391,3.107,3.106,3.107s3.106-1.391,3.106-3.107V94.349c0-1.4,1.141-2.541,2.543-2.541h10.377
			c1.402,0,2.542,1.141,2.542,2.541v10.377c0,1.717,1.392,3.107,3.106,3.107c1.717,0,3.107-1.391,3.107-3.107V94.349
			c0-1.543-0.403-2.996-1.111-4.258C122.936,89.442,123.668,88.258,123.668,86.897z"/>
		<path d="M85.251,70.675c0-1.964-1.593-3.556-3.556-3.556h-41.25c-1.964,0-3.556,1.592-3.556,3.556
			c0,1.965,1.592,3.557,3.556,3.557h4.879v31.578h31.49v-31.58h4.881C83.658,74.229,85.251,72.64,85.251,70.675z"/>
		<path d="M39.026,48.227H86.6V37.203h2.248V19.659H86.6v-3.824H39.026v3.824h-2.137v17.544h2.137V48.227z M41.726,18.535H83.9
			v21.367H72.216c-1.218-5.144-3.312-6.728-6.323-8.576c-0.091-0.056-0.188-0.097-0.281-0.136c-0.604-0.403-1.28-0.698-1.973-0.868
			l-1.349,1.356l-1.307-1.372c-0.006,0-0.01,0-0.014,0.002c-0.693,0.166-1.375,0.461-1.979,0.862
			c-0.107,0.044-0.216,0.092-0.32,0.155c-3.013,1.849-5.105,3.433-6.323,8.576H41.726V18.535z M63.504,39.902h-2.426l1.199-8.021
			h0.027L63.504,39.902z M41.726,42.939H83.9v2.586H41.726V42.939z"/>
		<circle cx="62.29" cy="24.594" r="5.414"/>
		<rect x="43.75" y="19.884" width="6.297" height="1.912"/>
		<rect x="43.75" y="22.683" width="4.329" height="1.911"/>
		<rect x="43.75" y="25.451" width="3.149" height="1.912"/>
		<rect x="43.75" y="28.333" width="1.869" height="1.911"/>
		<path d="M79.09,24.164c-0.219,0.208-0.355,0.5-0.355,0.826h2.281c0-0.326-0.139-0.618-0.356-0.826c0.7-0.302,1.19-1,1.19-1.813
			c0-1.092-0.885-1.978-1.976-1.978c-1.093,0-1.976,0.886-1.976,1.978C77.898,23.164,78.391,23.862,79.09,24.164z M79.874,21.33
			c0.589,0,1.065,0.478,1.065,1.066s-0.478,1.067-1.065,1.067s-1.065-0.479-1.065-1.067S79.285,21.33,79.874,21.33z"/>
		<circle cx="79.874" cy="22.375" r="0.478"/>
	</g>
</g> 
</svg>
