<svg version="1.1" baseProfile="full" xmlns="http://www.w3.org/2000/svg" xmlns:xlink="http://www.w3.org/1999/xlink" xmlns:ev="http://www.w3.org/2001/xml-events" width="65" height="44" viewBox="0 0 65 44"><g id="cloud" ><path fill-rule="evenodd" d="M51.867,14.880 C51.090,6.769 44.153,0.400 35.740,0.400 C30.160,0.400 25.083,3.181 22.119,7.759 C20.809,7.128 19.383,6.800 17.920,6.800 C12.592,6.800 8.251,11.056 8.200,16.307 C3.242,18.727 0.100,23.666 0.100,29.200 C0.100,37.140 6.640,43.600 14.680,43.600 C14.680,43.600 50.320,43.600 50.320,43.600 C58.360,43.600 64.900,37.140 64.900,29.200 C64.900,21.776 59.183,15.646 51.867,14.880 ZM50.320,40.400 C50.320,40.400 14.680,40.400 14.680,40.400 C8.428,40.400 3.340,35.376 3.340,29.200 C3.340,24.583 6.154,20.498 10.508,18.793 C11.190,18.527 11.605,17.842 11.521,17.124 C11.521,17.124 11.484,16.839 11.484,16.839 C11.465,16.695 11.440,16.550 11.440,16.400 C11.440,12.871 14.346,10.000 17.920,10.000 C19.285,10.000 20.610,10.437 21.745,11.263 C22.130,11.544 22.617,11.640 23.085,11.530 C23.549,11.420 23.941,11.112 24.155,10.690 C26.370,6.317 30.809,3.600 35.740,3.600 C42.886,3.600 48.700,9.342 48.700,16.400 C48.700,17.283 49.425,18.000 50.320,18.000 C56.572,18.000 61.660,23.024 61.660,29.200 C61.660,35.376 56.572,40.400 50.320,40.400 Z"/></g></svg>