<svg version="1.1" baseProfile="full" xmlns="http://www.w3.org/2000/svg" xmlns:xlink="http://www.w3.org/1999/xlink" xmlns:ev="http://www.w3.org/2001/xml-events" width="19" height="23" viewBox="0 0 19 23"><g id="commentaire_logo" ><path fill-rule="evenodd" d="M16.582,22.647 C16.582,22.647 8.977,22.647 8.977,22.647 C8.977,22.647 1.374,22.647 1.374,22.647 C0.601,22.647 -0.027,22.028 -0.027,21.266 C-0.027,21.266 -0.027,3.387 -0.027,3.387 C-0.027,2.623 0.601,2.005 1.374,2.005 C1.374,2.005 1.990,2.005 1.990,2.005 C1.990,2.005 4.103,2.005 4.103,2.005 C4.103,2.005 4.169,2.005 4.169,2.005 C4.169,2.005 5.123,2.005 5.123,2.005 C5.123,2.005 5.123,2.946 5.123,2.946 C5.123,3.466 4.696,3.889 4.169,3.889 C4.169,3.889 2.519,3.889 2.519,3.889 C2.179,3.889 1.901,4.152 1.883,4.485 C1.883,4.494 1.883,4.506 1.883,4.516 C1.883,4.528 1.883,4.538 1.883,4.549 C1.883,4.549 1.883,20.106 1.883,20.106 C1.883,20.116 1.883,20.127 1.883,20.137 C1.883,20.149 1.883,20.159 1.883,20.170 C1.901,20.486 2.154,20.741 2.471,20.764 C2.486,20.765 2.504,20.766 2.519,20.766 C2.537,20.766 2.552,20.765 2.570,20.764 C2.570,20.764 8.977,20.764 8.977,20.764 C8.977,20.764 15.387,20.764 15.387,20.764 C15.404,20.765 15.420,20.766 15.435,20.766 C15.453,20.766 15.470,20.765 15.486,20.764 C15.803,20.741 16.055,20.486 16.073,20.170 C16.073,20.159 16.073,20.149 16.073,20.137 C16.073,20.127 16.073,20.116 16.073,20.106 C16.073,20.106 16.073,4.549 16.073,4.549 C16.073,4.538 16.073,4.528 16.073,4.516 C16.073,4.506 16.073,4.494 16.073,4.485 C16.055,4.152 15.777,3.889 15.435,3.889 C15.435,3.889 13.787,3.889 13.787,3.889 C13.260,3.889 12.833,3.466 12.833,2.946 C12.833,2.946 12.833,2.005 12.833,2.005 C12.833,2.005 13.787,2.005 13.787,2.005 C13.787,2.005 13.853,2.005 13.853,2.005 C13.853,2.005 15.966,2.005 15.966,2.005 C15.966,2.005 16.582,2.005 16.582,2.005 C17.355,2.005 17.983,2.623 17.983,3.387 C17.983,3.387 17.983,21.266 17.983,21.266 C17.983,22.028 17.355,22.647 16.582,22.647 ZM4.480,10.841 C4.480,10.472 4.760,10.165 5.121,10.115 C5.121,10.115 5.327,10.115 5.327,10.115 C5.327,10.115 12.635,10.115 12.635,10.115 C12.635,10.115 12.841,10.115 12.841,10.115 C13.204,10.165 13.482,10.472 13.482,10.841 C13.482,10.841 13.482,10.923 13.482,10.923 C13.482,11.293 13.206,11.599 12.845,11.650 C12.845,11.650 12.633,11.650 12.633,11.650 C12.633,11.650 5.329,11.650 5.329,11.650 C5.329,11.650 5.119,11.650 5.119,11.650 C4.758,11.599 4.480,11.293 4.480,10.923 C4.480,10.923 4.480,10.841 4.480,10.841 ZM5.121,16.777 C5.121,16.777 5.327,16.777 5.327,16.777 C5.327,16.777 9.578,16.777 9.578,16.777 C9.578,16.777 9.784,16.777 9.784,16.777 C10.147,16.827 10.425,17.133 10.425,17.505 C10.425,17.505 10.425,17.585 10.425,17.585 C10.425,17.955 10.149,18.262 9.788,18.311 C9.788,18.311 9.576,18.311 9.576,18.311 C9.576,18.311 5.329,18.311 5.329,18.311 C5.329,18.311 5.119,18.311 5.119,18.311 C4.758,18.262 4.480,17.955 4.480,17.585 C4.480,17.585 4.480,17.505 4.480,17.505 C4.480,17.133 4.760,16.827 5.121,16.777 ZM4.480,14.188 C4.480,13.819 4.760,13.512 5.121,13.462 C5.121,13.462 5.327,13.462 5.327,13.462 C5.327,13.462 12.635,13.462 12.635,13.462 C12.635,13.462 12.841,13.462 12.841,13.462 C13.204,13.512 13.482,13.819 13.482,14.188 C13.482,14.188 13.482,14.270 13.482,14.270 C13.482,14.640 13.206,14.946 12.845,14.997 C12.845,14.997 12.633,14.997 12.633,14.997 C12.633,14.997 5.329,14.997 5.329,14.997 C5.329,14.997 5.119,14.997 5.119,14.997 C4.758,14.946 4.480,14.640 4.480,14.270 C4.480,14.270 4.480,14.188 4.480,14.188 ZM14.098,7.088 C14.098,7.100 14.098,7.111 14.098,7.123 C14.098,7.133 14.098,7.144 14.098,7.155 C14.081,7.487 13.803,7.751 13.461,7.751 C13.461,7.751 11.286,7.751 11.286,7.751 C11.286,7.751 9.791,7.751 9.791,7.751 C9.791,7.751 9.253,7.751 9.253,7.751 C9.253,7.751 8.977,7.751 8.977,7.751 C8.977,7.751 8.703,7.751 8.703,7.751 C8.703,7.751 8.165,7.751 8.165,7.751 C8.165,7.751 6.670,7.751 6.670,7.751 C6.670,7.751 4.496,7.751 4.496,7.751 C4.153,7.751 3.876,7.487 3.858,7.155 C3.858,7.144 3.858,7.133 3.858,7.123 C3.858,7.111 3.858,7.100 3.858,7.088 C3.874,6.054 4.591,5.185 5.563,4.927 C5.586,4.921 5.609,4.916 5.631,4.910 C6.231,4.741 6.670,4.197 6.670,3.552 C6.670,3.552 6.670,2.884 6.670,2.884 C6.670,1.628 7.704,0.609 8.977,0.609 C10.252,0.609 11.286,1.628 11.286,2.884 C11.286,2.884 11.286,3.552 11.286,3.552 C11.286,4.197 11.725,4.741 12.326,4.910 C12.347,4.916 12.370,4.921 12.392,4.927 C13.365,5.185 14.083,6.054 14.098,7.088 ZM8.977,2.204 C8.598,2.204 8.289,2.508 8.289,2.884 C8.289,3.260 8.598,3.565 8.977,3.565 C9.358,3.565 9.667,3.260 9.667,2.884 C9.667,2.508 9.358,2.204 8.977,2.204 Z"/></g></svg>