<svg version="1.1" baseProfile="full" xmlns="http://www.w3.org/2000/svg" xmlns:xlink="http://www.w3.org/1999/xlink" xmlns:ev="http://www.w3.org/2001/xml-events" width="13" height="13" viewBox="0 0 13 13"><g id="cross_close_drop_down" ><path fill-rule="evenodd" d="M9.019,5.894 C9.019,5.894 12.182,2.739 12.182,2.739 C12.182,2.739 12.341,2.578 12.341,2.578 C12.346,2.573 12.351,2.568 12.356,2.561 C12.863,1.957 12.823,1.047 12.266,0.490 C11.975,0.199 11.589,0.040 11.179,0.040 C10.807,0.040 10.446,0.174 10.167,0.421 C10.162,0.424 10.159,0.427 10.154,0.433 C10.154,0.433 6.845,3.741 6.845,3.741 C6.843,3.745 6.840,3.746 6.838,3.750 C6.835,3.753 6.832,3.757 6.828,3.760 C6.828,3.760 6.821,3.767 6.821,3.767 C6.759,3.820 6.654,3.812 6.608,3.772 C6.607,3.770 6.597,3.760 6.597,3.760 C6.595,3.758 6.588,3.751 6.587,3.750 C6.585,3.748 6.581,3.745 6.578,3.741 C6.578,3.741 3.251,0.407 3.251,0.407 C3.244,0.402 3.239,0.397 3.233,0.392 C2.957,0.161 2.608,0.033 2.247,0.033 C1.837,0.033 1.451,0.192 1.161,0.483 C0.590,1.054 0.560,1.975 1.092,2.581 C1.097,2.586 1.101,2.590 1.106,2.595 C1.106,2.595 4.413,5.902 4.413,5.902 C4.416,5.904 4.418,5.907 4.421,5.910 C4.423,5.910 4.429,5.917 4.431,5.919 C4.431,5.919 4.439,5.927 4.439,5.929 C4.495,5.991 4.497,6.083 4.443,6.145 C4.443,6.145 4.428,6.160 4.428,6.160 C4.424,6.165 4.419,6.169 4.416,6.172 C4.416,6.172 1.228,9.362 1.228,9.362 C1.228,9.362 1.084,9.505 1.084,9.505 C1.079,9.510 1.074,9.515 1.069,9.521 C0.557,10.122 0.594,11.031 1.153,11.590 C1.441,11.878 1.826,12.038 2.232,12.038 C2.640,12.038 3.021,11.878 3.315,11.588 C3.315,11.588 6.585,8.323 6.585,8.323 C6.590,8.318 6.592,8.318 6.597,8.311 C6.597,8.311 6.598,8.309 6.602,8.308 C6.664,8.252 6.768,8.257 6.828,8.316 C6.832,8.321 6.837,8.326 6.842,8.331 C6.842,8.331 10.177,11.665 10.177,11.665 C10.182,11.670 10.187,11.675 10.192,11.679 C10.468,11.914 10.818,12.043 11.181,12.043 C11.181,12.043 11.183,12.043 11.183,12.043 C11.591,12.043 11.973,11.885 12.261,11.596 C12.855,11.002 12.857,10.033 12.261,9.434 C12.261,9.434 9.036,6.204 9.036,6.204 C9.027,6.196 9.017,6.186 9.007,6.179 C9.002,6.174 8.995,6.171 8.990,6.165 C8.984,6.159 8.979,6.152 8.974,6.145 C8.925,6.080 8.932,5.988 8.990,5.929 C9.000,5.917 9.011,5.907 9.019,5.894 Z"/></g></svg>