<svg version="1.1" baseProfile="full" xmlns="http://www.w3.org/2000/svg" xmlns:xlink="http://www.w3.org/1999/xlink" xmlns:ev="http://www.w3.org/2001/xml-events" width="24" height="24" viewBox="0 0 24 24"><g id="default_pp" ><path fill-rule="evenodd"  fill="rgb( 165, 165, 165 )" d="M2.117,24.000 C2.854,24.000 2.666,23.404 2.666,22.667 C2.666,22.667 2.666,21.311 2.666,21.311 C2.666,19.434 6.658,16.628 12.000,16.628 C17.342,16.628 21.334,19.434 21.334,21.311 C21.334,21.311 21.334,22.667 21.334,22.667 C21.334,23.404 21.391,24.000 22.667,24.000 C23.193,24.000 23.294,23.404 23.294,22.667 C23.294,22.667 23.294,21.311 23.294,21.311 C23.294,18.142 20.383,15.632 15.196,14.894 C17.280,13.333 18.667,10.268 18.667,6.667 C18.667,2.991 15.676,-0.000 12.000,-0.000 C8.324,-0.000 5.333,2.991 5.333,6.667 C5.333,10.268 6.721,13.333 8.804,14.894 C3.617,15.632 0.706,18.142 0.706,21.311 C0.706,21.311 0.706,22.667 0.706,22.667 C0.706,23.404 0.621,24.000 2.117,24.000 ZM7.293,6.432 C7.293,3.836 9.405,1.725 12.000,1.725 C14.595,1.725 16.706,3.836 16.706,6.432 C16.706,10.683 14.551,14.276 12.000,14.276 C9.449,14.276 7.293,10.683 7.293,6.432 Z"/></g></svg>