<svg version="1.1" baseProfile="full" xmlns="http://www.w3.org/2000/svg" xmlns:xlink="http://www.w3.org/1999/xlink" xmlns:ev="http://www.w3.org/2001/xml-events" width="22" height="17" viewBox="0 0 22 17"><g id="done_green_2" ><path fill-rule="evenodd"  fill="#9c0" d="M18.705,0.185 C18.067,0.185 17.453,0.414 16.975,0.832 C16.956,0.848 16.938,0.867 16.919,0.885 C16.919,0.885 8.205,9.602 8.205,9.602 C8.205,9.602 5.087,6.483 5.087,6.483 C4.590,5.986 3.929,5.711 3.224,5.711 C2.522,5.711 1.861,5.986 1.362,6.483 C0.351,7.494 0.325,9.105 1.303,10.146 C1.303,10.146 6.763,15.608 6.763,15.608 C6.763,15.608 6.803,15.648 6.803,15.648 C6.826,15.671 6.849,15.694 6.870,15.711 C7.232,16.035 7.699,16.213 8.184,16.213 C8.651,16.213 9.104,16.047 9.459,15.746 C9.482,15.725 9.503,15.704 9.526,15.683 C9.526,15.683 11.093,14.114 11.093,14.114 C11.107,14.102 11.119,14.088 11.130,14.077 C11.130,14.077 15.285,9.924 15.285,9.924 C15.297,9.912 15.308,9.898 15.320,9.887 C15.332,9.875 15.343,9.863 15.355,9.852 C15.355,9.852 15.820,9.389 15.820,9.389 C15.848,9.366 15.876,9.340 15.901,9.312 C15.901,9.312 20.672,4.551 20.672,4.551 C20.703,4.522 20.731,4.490 20.756,4.457 C21.597,3.411 21.515,1.906 20.565,0.956 C20.068,0.458 19.407,0.185 18.705,0.185 Z"/></g></svg>