<svg version="1.1" baseProfile="full" xmlns="http://www.w3.org/2000/svg" xmlns:xlink="http://www.w3.org/1999/xlink" xmlns:ev="http://www.w3.org/2001/xml-events" viewBox="0 0 10 10">
  <g id="editable">
    <path fill-rule="evenodd" d="M20.578,4.196 C20.578,4.196 18.789,5.985 18.789,5.985 C18.579,6.196 18.237,6.196 18.026,5.985 C18.026,5.985 14.998,2.957 14.998,2.957 C14.788,2.745 14.788,2.405 14.998,2.194 C14.998,2.194 16.787,0.405 16.787,0.405 C17.261,-0.069 18.029,-0.069 18.503,0.405 C18.503,0.405 20.578,2.479 20.578,2.479 C21.052,2.954 21.052,3.722 20.578,4.196 ZM17.378,7.397 C17.378,7.397 7.474,17.300 7.474,17.300 C7.264,17.511 6.922,17.511 6.711,17.300 C6.711,17.300 3.683,14.272 3.683,14.272 C3.472,14.060 3.472,13.720 3.683,13.509 C3.683,13.509 13.587,3.606 13.587,3.606 C13.797,3.395 14.139,3.394 14.350,3.606 C14.350,3.606 17.378,6.634 17.378,6.634 C17.589,6.844 17.589,7.186 17.378,7.397 ZM5.988,18.446 C5.953,18.480 5.914,18.508 5.872,18.526 C5.872,18.526 5.792,18.554 5.792,18.554 C5.792,18.554 1.495,20.025 1.495,20.025 C1.495,20.025 1.416,20.052 1.416,20.052 C1.285,20.083 1.141,20.047 1.039,19.945 C0.937,19.843 0.900,19.699 0.931,19.567 C0.931,19.567 0.958,19.489 0.958,19.489 C0.958,19.489 2.430,15.191 2.430,15.191 C2.430,15.191 2.457,15.111 2.457,15.111 C2.476,15.069 2.503,15.030 2.537,14.995 C2.696,14.837 2.951,14.837 3.110,14.995 C3.110,14.995 5.988,17.874 5.988,17.874 C6.146,18.032 6.146,18.288 5.988,18.446 Z"/>
	</g>
</svg>