<svg version="1.1" baseProfile="full" xmlns="http://www.w3.org/2000/svg" xmlns:xlink="http://www.w3.org/1999/xlink" xmlns:ev="http://www.w3.org/2001/xml-events" width="36" height="29" viewBox="0 0 36 29"><g id="email_add" ><path fill-rule="evenodd"  fill="rgb( 165, 165, 165 )" d="M34.637,8.460 C34.637,8.460 30.782,8.460 30.782,8.460 C30.782,8.460 30.782,12.316 30.782,12.316 C30.782,12.742 30.436,13.087 30.010,13.087 C30.010,13.087 28.468,13.087 28.468,13.087 C28.042,13.087 27.697,12.742 27.697,12.316 C27.697,12.316 27.697,8.460 27.697,8.460 C27.697,8.460 23.841,8.460 23.841,8.460 C23.416,8.460 23.070,8.115 23.070,7.689 C23.070,7.689 23.070,6.147 23.070,6.147 C23.070,5.721 23.416,5.376 23.841,5.376 C23.841,5.376 27.697,5.376 27.697,5.376 C27.697,5.376 27.697,1.520 27.697,1.520 C27.697,1.094 28.042,0.749 28.468,0.749 C28.468,0.749 30.010,0.749 30.010,0.749 C30.436,0.749 30.782,1.094 30.782,1.520 C30.782,1.520 30.782,5.376 30.782,5.376 C30.782,5.376 34.637,5.376 34.637,5.376 C35.063,5.376 35.408,5.721 35.408,6.147 C35.408,6.147 35.408,7.689 35.408,7.689 C35.408,8.115 35.063,8.460 34.637,8.460 ZM23.864,16.918 C23.864,16.918 23.864,27.398 23.864,27.398 C23.864,28.204 23.214,28.858 22.411,28.858 C22.411,28.858 2.338,28.858 2.338,28.858 C1.535,28.858 0.884,28.204 0.884,27.398 C0.884,27.398 0.884,16.918 0.884,16.918 C0.884,16.561 1.172,16.270 1.529,16.270 C1.653,16.270 1.770,16.305 1.868,16.366 C1.868,16.366 11.468,23.927 11.547,23.982 C11.780,24.146 12.067,24.242 12.375,24.242 C12.679,24.242 12.961,24.148 13.196,23.987 C13.279,23.930 22.880,16.367 22.880,16.367 C22.979,16.305 23.095,16.270 23.219,16.270 C23.577,16.270 23.864,16.561 23.864,16.918 ZM22.342,15.088 C22.342,15.088 13.062,22.213 13.062,22.213 C12.872,22.354 12.637,22.437 12.383,22.437 C12.131,22.437 11.896,22.355 11.707,22.217 C11.707,22.217 2.310,14.998 2.310,14.998 C2.188,14.880 2.115,14.716 2.115,14.533 C2.115,14.175 2.403,13.885 2.760,13.885 C2.760,13.885 22.006,13.885 22.006,13.885 C22.363,13.885 22.653,14.175 22.653,14.533 C22.653,14.698 22.592,14.848 22.490,14.962 C22.490,14.962 22.342,15.088 22.342,15.088 Z"/></g></svg>