<svg version="1.1" baseProfile="full" xmlns="http://www.w3.org/2000/svg" xmlns:xlink="http://www.w3.org/1999/xlink" xmlns:ev="http://www.w3.org/2001/xml-events" width="38" height="16" viewBox="0 0 38 16"><g transform="scale(NaN)" ><path fill-rule="evenodd"  fill="rgb( 255, 255, 255 )" d="M37.339,9.134 C37.322,8.839 37.306,8.554 37.300,8.287 C37.281,7.493 36.794,6.596 35.891,5.693 C33.240,3.042 27.060,0.312 19.224,0.191 C14.473,0.162 9.885,1.081 6.303,2.778 C3.021,4.334 1.068,6.314 1.079,8.074 C1.081,8.430 1.055,8.846 1.027,9.288 C0.923,10.952 0.793,13.022 2.039,14.268 C2.828,15.056 4.046,15.372 5.659,15.207 C11.111,14.648 11.554,13.541 11.508,10.260 C11.506,10.077 11.503,9.886 11.502,9.687 C11.497,8.863 14.757,7.661 19.271,7.689 C22.547,7.710 25.730,8.437 26.675,9.382 C26.894,9.601 26.896,9.740 26.896,9.786 C26.899,9.992 26.897,10.195 26.895,10.394 C26.886,11.604 26.876,12.856 27.815,13.796 C28.661,14.641 30.145,15.067 32.485,15.135 C34.228,15.186 35.476,14.799 36.299,13.952 C37.541,12.674 37.429,10.711 37.339,9.134 Z"/></g></svg>