<svg xmlns="http://www.w3.org/2000/svg" xmlns:xlink="http://www.w3.org/1999/xlink" width="41" height="50" viewBox="0 0 41 50">
   	<g id="head_phone">
    	<path d="M 36.86 16.29 C 39.14 16.29, 40.99 18.13, 40.99 20.4 L 40.99 27.9 C 40.99 30.17, 39.14 32.01, 36.86 32.01 L 36.86 32.14 L 34.28 32.14 L 34.28 16.29 C 34.28 8.72, 28.1 2.57, 20.5 2.57 C 12.9 2.57, 6.72 8.72, 6.72 16.29 L 6.72 32.14 C 6.72 38.22, 10.72 43.39, 16.23 45.18 C 16.77 44.58, 17.54 44.19, 18.42 44.19 L 22.68 44.19 C 24.29 44.19, 25.59 45.49, 25.59 47.09 C 25.59 48.7, 24.29 49.99, 22.68 49.99 L 18.42 49.99 C 17 49.99, 15.83 48.99, 15.56 47.67 C 8.94 45.58, 4.14 39.41, 4.14 32.14 L 4.14 32.01 C 1.86 32.01, 0.01 30.17, 0.01 27.9 L 0.01 20.4 C 0.01 18.13, 1.86 16.29, 4.14 16.29 C 4.14 7.31, 11.48 0, 20.5 0 C 29.52 0, 36.86 7.31, 36.86 16.29 Z" fill="#a5a5a5" />
	</g>
</svg>