<?xml version="1.0" encoding="iso-8859-1"?>
<!-- Generator: Adobe Illustrator 16.0.0, SVG Export Plug-In . SVG Version: 6.00 Build 0)  -->
<!DOCTYPE svg PUBLIC "-//W3C//DTD SVG 1.1//EN" "http://www.w3.org/Graphics/SVG/1.1/DTD/svg11.dtd">
<svg version="1.1" id="Capa_1" xmlns="http://www.w3.org/2000/svg" xmlns:xlink="http://www.w3.org/1999/xlink" x="0px" y="0px"
	 width="125.397px" height="125.397px" viewBox="0 0 125.397 125.397" style="enable-background:new 0 0 125.397 125.397;"
	 xml:space="preserve">
<g>
	<g id="collaboration">
		<circle cx="27.699" cy="12.976" r="12.976"/>
		<circle cx="97.699" cy="12.976" r="12.976"/>
		<path d="M110.226,72.52c0.186,0.138,0.365,0.279,0.572,0.392c0.765,0.417,1.589,0.614,2.403,0.614c1.786,0,3.516-0.952,4.43-2.631
			c14.212-26.123-5.174-38.014-11.544-41.92c-0.167-0.103-0.344-0.169-0.518-0.25c-1.424-0.934-3.017-1.622-4.638-2.019
			l-3.232,3.253l-3.134-3.29c-0.011,0.003-0.021,0.003-0.032,0.005c-1.556,0.372-3.08,1.016-4.459,1.885
			c-0.346,0.105-0.685,0.241-1.01,0.424c-1.891,1.062-3.562,1.247-5.42,0.599c-6.647-2.317-12.751-14.103-14.363-18.044
			c-1.047-2.578-3.984-3.816-6.563-2.77c-0.913,0.371-1.647,0.987-2.183,1.732c-1.228,0.418-2.296,1.306-2.908,2.565
			c-1.758,3.619-8.338,14.441-15.27,16.611c-2.099,0.657-4.013,0.436-6.023-0.694c-0.327-0.183-0.666-0.319-1.01-0.424
			c-1.38-0.869-2.905-1.513-4.46-1.885c-0.01-0.002-0.021-0.002-0.032-0.005l-3.134,3.29l-3.232-3.253
			c-1.621,0.397-3.213,1.084-4.636,2.018c-0.174,0.081-0.352,0.148-0.52,0.251C12.94,32.88-6.445,44.77,7.766,70.893
			c0.914,1.68,2.644,2.632,4.43,2.632c0.813,0,1.638-0.197,2.403-0.614c0.207-0.113,0.387-0.254,0.572-0.391l-10.85,45.541
			c-0.762,3.199,1.213,6.41,4.412,7.172c0.463,0.109,0.928,0.162,1.384,0.162c2.694,0,5.135-1.84,5.787-4.575l10.207-42.841
			c0.526,0.056,1.054,0.093,1.587,0.093c0.914,0,1.819-0.089,2.705-0.249c1.494,4.354,3.611,10.998,4.477,15.995
			c1.083,6.254-0.961,19.825-1.84,24.526c-0.605,3.231,1.523,6.342,4.755,6.946c0.371,0.069,0.739,0.103,1.103,0.103
			c2.808,0,5.309-1.995,5.845-4.856c0.364-1.944,3.513-19.267,1.87-28.751c-1.338-7.722-5.025-18.167-6.272-21.579
			c0.412-1.106,0.638-2.307,0.638-3.584V40.079c1.462-0.076,2.931-0.33,4.389-0.787c8.327-2.607,14.748-10.86,18.301-16.481
			c3.451,5.966,9.146,13.657,16.642,16.277c1.36,0.476,2.734,0.767,4.109,0.88v26.656c0,1.277,0.226,2.478,0.638,3.584
			c-1.247,3.412-4.935,13.856-6.271,21.579c-1.644,9.486,1.506,26.809,1.87,28.751c0.536,2.862,3.036,4.856,5.845,4.856
			c0.364,0,0.733-0.032,1.104-0.103c3.23-0.604,5.359-3.716,4.754-6.948c-0.881-4.695-2.928-18.254-1.841-24.524
			c0.864-4.987,2.983-11.638,4.479-15.995c0.886,0.16,1.791,0.249,2.705,0.249c0.533,0,1.062-0.038,1.587-0.093l10.207,42.841
			c0.651,2.735,3.092,4.576,5.786,4.576c0.457,0,0.921-0.054,1.385-0.163c3.198-0.764,5.173-3.973,4.412-7.171L110.226,72.52z
			 M110.979,46.947c1.924,3.639,2.354,8.246,0,14.403V46.947z M14.417,61.349c-2.354-6.157-1.923-10.764,0-14.402V61.349z
			 M27.728,55.639h-0.061l-3.129-4.282l3.129-20.917h0.061l3.129,20.917L27.728,55.639z M97.729,55.639h-0.061l-3.128-4.282
			l3.128-20.917h0.061l3.13,20.917L97.729,55.639z"/>
	</g>
</g>
<g>
</g>
<g>
</g>
<g>
</g>
<g>
</g>
<g>
</g>
<g>
</g>
<g>
</g>
<g>
</g>
<g>
</g>
<g>
</g>
<g>
</g>
<g>
</g>
<g>
</g>
<g>
</g>
<g>
</g>
</svg>
