<svg version="1.1" baseProfile="full" xmlns="http://www.w3.org/2000/svg" xmlns:xlink="http://www.w3.org/1999/xlink" xmlns:ev="http://www.w3.org/2001/xml-events" width="27" height="25" viewBox="0 0 27 25"><g id="icone_add_link" ><path fill-rule="evenodd"  fill="rgb( 165, 165, 165 )" d="M26.371,9.979 C26.519,9.266 26.519,8.525 26.371,7.811 C26.243,7.193 26.002,6.596 25.650,6.050 C25.469,5.767 25.254,5.497 25.011,5.247 C25.011,5.247 24.094,4.304 24.094,4.304 C24.094,4.304 22.478,2.643 22.478,2.643 C22.478,2.643 21.558,1.698 21.558,1.698 C21.315,1.448 21.054,1.229 20.777,1.042 C20.246,0.680 19.664,0.434 19.062,0.301 C18.369,0.149 17.648,0.149 16.954,0.301 C16.039,0.503 15.169,0.968 14.458,1.698 C14.458,1.698 12.840,3.361 12.840,3.361 C12.840,3.361 11.213,5.034 11.213,5.034 C11.213,5.034 1.888,14.616 1.888,14.616 C1.055,15.472 0.549,16.534 0.366,17.643 C0.265,18.261 0.265,18.896 0.366,19.514 C0.472,20.156 0.686,20.780 1.007,21.359 C1.243,21.781 1.536,22.179 1.888,22.541 C2.097,22.756 2.318,22.949 2.550,23.122 C3.241,23.636 4.022,23.963 4.829,24.103 C5.432,24.208 6.049,24.208 6.654,24.103 C7.731,23.916 8.767,23.396 9.598,22.541 C9.598,22.541 9.601,22.544 9.601,22.544 C9.601,22.544 19.740,12.124 19.740,12.124 C19.740,12.124 19.737,12.121 19.737,12.121 C19.930,11.922 20.095,11.704 20.234,11.475 C20.298,11.368 20.357,11.259 20.407,11.147 C20.760,10.392 20.835,9.533 20.634,8.733 C20.580,8.515 20.503,8.300 20.406,8.092 C20.243,7.742 20.020,7.413 19.737,7.122 C19.453,6.831 19.132,6.600 18.789,6.432 C18.588,6.333 18.380,6.254 18.165,6.198 C17.387,5.992 16.554,6.070 15.819,6.431 C15.710,6.484 15.603,6.545 15.499,6.610 C15.276,6.752 15.065,6.922 14.872,7.122 C14.872,7.122 14.865,7.116 14.865,7.116 C14.865,7.116 8.446,13.713 8.446,13.713 C8.446,13.713 6.709,15.498 6.709,15.498 C6.709,15.498 6.353,15.865 6.353,15.865 C6.353,15.865 6.358,15.870 6.358,15.870 C5.910,16.332 5.910,17.079 6.358,17.539 C6.807,18.000 7.534,18.000 7.983,17.539 C7.983,17.539 8.497,17.010 8.497,17.010 C8.497,17.010 10.162,15.299 10.162,15.299 C10.162,15.299 12.578,12.816 12.578,12.816 C12.578,12.816 16.495,8.790 16.495,8.790 C16.495,8.790 16.498,8.794 16.498,8.794 C16.944,8.336 17.665,8.336 18.109,8.794 C18.554,9.251 18.554,9.992 18.109,10.449 C18.109,10.449 18.111,10.451 18.111,10.451 C18.111,10.451 14.193,14.478 14.193,14.478 C14.193,14.478 11.118,17.639 11.118,17.639 C11.118,17.639 7.973,20.870 7.973,20.870 C7.973,20.870 7.969,20.868 7.969,20.868 C6.952,21.911 5.414,22.091 4.217,21.409 C3.966,21.266 3.729,21.086 3.516,20.866 C3.151,20.491 2.893,20.045 2.746,19.573 C2.395,18.454 2.651,17.179 3.516,16.290 C3.516,16.290 3.510,16.284 3.510,16.284 C3.510,16.284 6.654,13.054 6.654,13.054 C6.654,13.054 12.836,6.701 12.836,6.701 C12.836,6.701 13.099,6.429 13.099,6.429 C13.099,6.429 14.462,5.029 14.462,5.029 C14.462,5.029 16.081,3.365 16.081,3.365 C16.895,2.530 18.094,2.332 19.090,2.776 C19.397,2.911 19.684,3.108 19.936,3.365 C19.936,3.365 20.407,3.851 20.407,3.851 C20.407,3.851 20.855,4.310 20.855,4.310 C20.855,4.310 22.471,5.971 22.471,5.971 C22.471,5.971 22.917,6.429 22.917,6.429 C22.917,6.429 23.389,6.915 23.389,6.915 C23.640,7.172 23.833,7.468 23.964,7.784 C24.394,8.806 24.203,10.041 23.389,10.875 C23.389,10.875 21.770,12.539 21.770,12.539 C21.770,12.539 20.407,13.940 20.407,13.940 C20.407,13.940 20.144,14.211 20.144,14.211 C20.144,14.211 12.549,22.016 12.549,22.016 C12.549,22.016 12.340,22.233 12.340,22.233 C11.991,22.695 12.025,23.362 12.437,23.786 C12.886,24.247 13.613,24.247 14.061,23.786 C14.061,23.786 14.068,23.792 14.068,23.792 C14.068,23.792 21.766,15.880 21.766,15.880 C21.766,15.880 23.393,14.207 23.393,14.207 C23.393,14.207 25.011,12.543 25.011,12.543 C25.722,11.814 26.176,10.919 26.371,9.979 Z"/></g></svg>