<svg version="1.1" baseProfile="full" xmlns="http://www.w3.org/2000/svg" xmlns:xlink="http://www.w3.org/1999/xlink" xmlns:ev="http://www.w3.org/2001/xml-events" width="476" height="381" viewBox="0 0 476 381"><filter id="Filter_0">  <feOffset in="SourceAlpha" dx="0px" dy="6px" />  <feGaussianBlur result="blurOut" stdDeviation="0" />  <feFlood flood-color="rgb( 3, 3, 3 )" result="floodOut" />  <feComposite operator="out" in="floodOut" in2="blurOut" result="compOut" />  <feComposite operator="in" in="compOut" in2="SourceAlpha" />  <feComponentTransfer><feFuncA type="linear" slope="0.08"/></feComponentTransfer>  <feBlend mode="normal" in2="SourceGraphic" /></filter><filter id="Filter_1">  <feOffset in="SourceAlpha" dx="0px" dy="6px" />  <feGaussianBlur result="blurOut" stdDeviation="0" />  <feFlood flood-color="rgb( 3, 3, 3 )" result="floodOut" />  <feComposite operator="out" in="floodOut" in2="blurOut" result="compOut" />  <feComposite operator="in" in="compOut" in2="SourceAlpha" />  <feComponentTransfer><feFuncA type="linear" slope="0.08"/></feComponentTransfer>  <feBlend mode="normal" in2="SourceGraphic" /></filter><filter filterUnits="userSpaceOnUse" id="Filter_2" x="169px" y="120px" width="134px" height="137px"  >  <feOffset in="SourceAlpha" dx="0px" dy="10px" />  <feGaussianBlur result="blurOut" stdDeviation="0" />  <feFlood flood-color="rgb( 3, 3, 3 )" result="floodOut" />  <feComposite operator="atop" in="floodOut" in2="blurOut" />  <feComponentTransfer><feFuncA type="linear" slope="0.08"/></feComponentTransfer>  <feMerge>    <feMergeNode/>    <feMergeNode in="SourceGraphic"/>  </feMerge></filter><g id="img_tab_1" ><path fill-rule="evenodd"  fill="rgb( 239, 241, 245 )" d="M14.406,4.344 C14.406,4.344 457.594,4.344 457.594,4.344 C463.117,4.344 467.594,8.821 467.594,14.344 C467.594,14.344 467.594,336.344 467.594,336.344 C467.594,341.867 463.117,346.344 457.594,346.344 C457.594,346.344 14.406,346.344 14.406,346.344 C8.883,346.344 4.406,341.867 4.406,336.344 C4.406,336.344 4.406,14.344 4.406,14.344 C4.406,8.821 8.883,4.344 14.406,4.344 Z"/><g filter="url(#Filter_0)"><path fill-rule="evenodd"  fill="rgb( 219, 233, 233 )" d="M400.391,301.219 C420.005,301.219 435.906,317.120 435.906,336.734 C435.906,356.349 420.005,372.250 400.391,372.250 C380.776,372.250 364.875,356.349 364.875,336.734 C364.875,317.120 380.776,301.219 400.391,301.219 Z"/></g><g filter="url(#Filter_1)"><path fill-rule="evenodd"  fill="rgb( 239, 241, 245 )" d="M304.391,301.219 C324.005,301.219 339.906,317.120 339.906,336.734 C339.906,356.349 324.005,372.250 304.391,372.250 C284.776,372.250 268.875,356.349 268.875,336.734 C268.875,317.120 284.776,301.219 304.391,301.219 Z"/></g><path fill-rule="evenodd"  fill="rgb( 165, 165, 165 )" d="M389.997,348.356 C390.715,348.356 391.297,347.777 391.297,347.061 C391.297,347.061 391.297,345.743 391.297,345.743 C391.297,343.918 395.190,341.877 400.400,341.877 C405.610,341.877 409.503,343.918 409.503,345.743 C409.503,345.743 409.503,347.061 409.503,347.061 C409.503,347.777 410.086,348.356 410.804,348.356 C411.522,348.356 412.104,347.777 412.104,347.061 C412.104,347.061 412.104,345.743 412.104,345.743 C412.104,342.662 408.576,340.223 403.517,339.506 C405.549,337.988 406.902,335.009 406.902,331.509 C406.902,327.936 403.985,325.029 400.400,325.029 C396.815,325.029 393.898,327.936 393.898,331.509 C393.898,335.009 395.251,337.988 397.283,339.506 C392.224,340.223 388.696,342.662 388.696,345.743 C388.696,345.743 388.696,347.061 388.696,347.061 C388.696,347.777 389.278,348.356 389.997,348.356 ZM396.499,331.509 C396.499,329.365 398.249,327.621 400.400,327.621 C402.551,327.621 404.301,329.365 404.301,331.509 C404.301,335.021 402.515,337.989 400.400,337.989 C398.286,337.989 396.499,335.021 396.499,331.509 Z"/><path fill-rule="evenodd"  fill="rgb( 165, 165, 165 )" d="M293.997,348.356 C294.715,348.356 295.297,347.777 295.297,347.061 C295.297,347.061 295.297,345.743 295.297,345.743 C295.297,343.918 299.190,341.877 304.400,341.877 C309.610,341.877 313.503,343.918 313.503,345.743 C313.503,345.743 313.503,347.061 313.503,347.061 C313.503,347.777 314.086,348.356 314.804,348.356 C315.522,348.356 316.104,347.777 316.104,347.061 C316.104,347.061 316.104,345.743 316.104,345.743 C316.104,342.662 312.576,340.223 307.517,339.506 C309.549,337.988 310.902,335.009 310.902,331.509 C310.902,327.936 307.985,325.029 304.400,325.029 C300.815,325.029 297.898,327.936 297.898,331.509 C297.898,335.009 299.251,337.988 301.283,339.506 C296.224,340.223 292.696,342.662 292.696,345.743 C292.696,345.743 292.696,347.061 292.696,347.061 C292.696,347.777 293.278,348.356 293.997,348.356 ZM300.499,331.509 C300.499,329.365 302.249,327.621 304.400,327.621 C306.551,327.621 308.301,329.365 308.301,331.509 C308.301,335.021 306.515,337.989 304.400,337.989 C302.286,337.989 300.499,335.021 300.499,331.509 Z"/><g filter="url(#Filter_2)"><path fill-rule="evenodd"  fill="rgb( 239, 241, 245 )" d="M178.969,126.688 C178.969,126.688 293.031,126.688 293.031,126.688 C294.688,126.688 296.031,128.031 296.031,129.688 C296.031,129.688 296.031,243.781 296.031,243.781 C296.031,245.438 294.688,246.781 293.031,246.781 C293.031,246.781 178.969,246.781 178.969,246.781 C177.312,246.781 175.969,245.438 175.969,243.781 C175.969,243.781 175.969,129.688 175.969,129.688 C175.969,128.031 177.312,126.688 178.969,126.688 Z"/></g><path fill-rule="evenodd"  fill="rgb( 165, 165, 165 )" d="M237.000,169.016 C237.000,169.016 236.926,169.016 236.926,169.016 C236.926,169.016 216.583,170.588 216.583,170.588 C209.960,170.629 204.585,175.971 204.585,182.530 C204.585,182.530 204.585,199.500 204.585,199.500 C204.585,206.060 209.960,211.401 216.583,211.442 C216.583,211.442 236.851,213.008 236.851,213.008 C236.851,213.008 237.000,213.014 237.000,213.014 C243.375,213.014 248.608,208.104 249.043,201.907 C249.043,201.907 269.415,206.944 269.415,206.944 C269.415,206.944 269.415,175.086 269.415,175.086 C269.415,175.086 249.043,180.123 249.043,180.123 C248.608,173.927 243.375,169.016 237.000,169.016 ZM245.263,201.072 C245.263,205.554 241.595,209.205 237.070,209.242 C237.070,209.242 216.809,207.677 216.809,207.677 C216.809,207.677 216.661,207.671 216.661,207.671 C212.105,207.671 208.398,204.006 208.398,199.500 C208.398,199.500 208.398,182.530 208.398,182.530 C208.398,178.025 212.105,174.359 216.661,174.359 C216.661,174.359 216.735,174.359 216.735,174.359 C216.735,174.359 237.070,172.788 237.070,172.788 C241.595,172.826 245.263,176.476 245.263,180.959 C245.263,180.959 245.263,201.072 245.263,201.072 ZM265.602,202.113 C265.602,202.113 249.076,198.028 249.076,198.028 C249.076,198.028 249.076,184.002 249.076,184.002 C249.076,184.002 265.602,179.916 265.602,179.916 C265.602,179.916 265.602,202.113 265.602,202.113 Z"/><path fill-rule="evenodd"  opacity="0.078" fill="rgb( 0, 0, 0 )" d="M3.200,35.541 C3.200,35.541 3.200,47.541 3.200,47.541 C3.200,47.541 110.250,43.941 221.690,43.941 C342.659,43.941 468.800,47.541 468.800,47.541 C468.800,47.541 468.800,35.541 468.800,35.541 C468.800,35.541 3.200,35.541 3.200,35.541 Z"/><path fill-rule="evenodd"  fill="rgb( 165, 165, 165 )" d="M28.391,13.938 C31.040,13.938 33.187,16.085 33.187,18.734 C33.187,21.384 31.040,23.531 28.391,23.531 C25.741,23.531 23.594,21.384 23.594,18.734 C23.594,16.085 25.741,13.938 28.391,13.938 Z"/><path fill-rule="evenodd"  fill="rgb( 165, 165, 165 )" d="M42.797,13.938 C45.446,13.938 47.594,16.085 47.594,18.734 C47.594,21.384 45.446,23.531 42.797,23.531 C40.148,23.531 38.000,21.384 38.000,18.734 C38.000,16.085 40.148,13.938 42.797,13.938 Z"/><path fill-rule="evenodd"  fill="rgb( 165, 165, 165 )" d="M57.203,13.938 C59.852,13.938 62.000,16.085 62.000,18.734 C62.000,21.384 59.852,23.531 57.203,23.531 C54.554,23.531 52.406,21.384 52.406,18.734 C52.406,16.085 54.554,13.938 57.203,13.938 Z"/><path fill-rule="evenodd"  fill="rgb( 165, 165, 165 )" d="M3.200,36.741 C3.200,36.741 3.200,31.941 3.200,31.941 C3.200,31.941 468.800,31.941 468.800,31.941 C468.800,31.941 468.800,36.741 468.800,36.741 C468.800,36.741 3.200,36.741 3.200,36.741 Z"/></g></svg>