<svg xmlns="http://www.w3.org/2000/svg" xmlns:xlink="http://www.w3.org/1999/xlink" width="10" height="22" viewBox="0 0 10 22">
	<g id="logo_info">
    <path d="M6.61,5.44C5.3,5.44,4.54,4.65,4.57,3.35C4.57,2.25,5.48,0.74,7.31,0.74C8.69,0.74,9.38,1.7,9.38,2.8C9.38,4.17,8.18,5.44,6.61,5.44C6.61,5.44,6.61,5.44,6.61,5.44M8.63,17.56C8.95,17.56,9.21,17.83,9.21,18.15C9.21,18.31,9.15,18.45,9.06,18.55C9.03,18.58,9.01,18.6,8.98,18.62C6.56,20.89,4.06,21.78,3.04,21.78C1.95,21.78,1.15,21.09,1.91,18.07C1.91,18.07,3.17,12.72,3.17,12.72C3.39,11.86,3.42,11.52,3.17,11.52C2.92,11.52,2.03,11.86,1.25,12.29C1.19,12.32,1.14,12.35,1.09,12.37C1.03,12.4,0.96,12.41,0.9,12.41C0.57,12.41,0.31,12.14,0.31,11.82C0.31,11.63,0.4,11.47,0.53,11.36C0.53,11.35,0.54,11.35,0.55,11.34C3.08,9.3,5.84,8.12,7.07,8.12C8.16,8.12,8.34,9.46,7.8,11.52C7.8,11.52,6.36,17.15,6.36,17.15C6.1,18.14,6.21,18.48,6.47,18.48C6.72,18.48,7.44,18.23,8.24,17.71C8.24,17.71,8.24,17.71,8.24,17.71C8.29,17.68,8.34,17.65,8.39,17.62C8.46,17.58,8.54,17.56,8.63,17.56C8.63,17.56,8.63,17.56,8.63,17.56" fill="#ff5757" />
	</g>
</svg>