<svg version="1.1" baseProfile="full" xmlns="http://www.w3.org/2000/svg" xmlns:xlink="http://www.w3.org/1999/xlink" xmlns:ev="http://www.w3.org/2001/xml-events" width="66" height="41" viewBox="0 0 66 41"><g id="logo_3" ><path  d="M65.891,2.099 C65.891,2.099 65.891,11.699 65.891,11.699 C65.891,12.583 65.173,13.299 64.287,13.299 C63.401,13.299 62.682,12.583 62.682,11.699 C62.682,11.699 62.682,3.699 62.682,3.699 C62.682,3.699 54.660,3.699 54.660,3.699 C53.774,3.699 53.056,2.982 53.056,2.099 C53.056,1.215 53.774,0.499 54.660,0.499 C54.660,0.499 64.287,0.499 64.287,0.499 C65.173,0.499 65.891,1.215 65.891,2.099 ZM59.003,7.368 C59.630,7.993 59.630,9.005 59.003,9.631 C59.003,9.631 44.124,24.470 44.124,24.470 C44.688,25.422 45.033,26.517 45.033,27.700 C45.033,31.230 42.154,34.101 38.616,34.101 C35.077,34.101 32.198,31.230 32.198,27.700 C32.198,26.517 32.544,25.422 33.107,24.470 C33.107,24.470 29.020,20.393 29.020,20.393 C28.065,20.955 26.967,21.300 25.780,21.300 C24.594,21.300 23.495,20.955 22.540,20.393 C22.540,20.393 12.035,30.870 12.035,30.870 C12.599,31.822 12.944,32.917 12.944,34.101 C12.944,37.630 10.065,40.501 6.527,40.501 C2.988,40.501 0.109,37.630 0.109,34.101 C0.109,30.572 2.988,27.700 6.527,27.700 C7.713,27.700 8.812,28.045 9.766,28.607 C9.766,28.607 20.272,18.130 20.272,18.130 C19.708,17.178 19.362,16.083 19.362,14.900 C19.362,11.370 22.241,8.499 25.780,8.499 C29.319,8.499 32.198,11.370 32.198,14.900 C32.198,16.083 31.852,17.178 31.288,18.130 C31.288,18.130 35.376,22.207 35.376,22.207 C36.331,21.645 37.429,21.300 38.616,21.300 C39.802,21.300 40.901,21.645 41.855,22.207 C41.855,22.207 56.735,7.368 56.735,7.368 C57.361,6.743 58.376,6.743 59.003,7.368 ZM9.736,34.101 C9.736,32.336 8.297,30.901 6.527,30.901 C4.757,30.901 3.318,32.336 3.318,34.101 C3.318,35.866 4.757,37.301 6.527,37.301 C8.297,37.301 9.736,35.866 9.736,34.101 ZM28.989,14.900 C28.989,13.135 27.550,11.699 25.780,11.699 C24.010,11.699 22.571,13.135 22.571,14.900 C22.571,16.665 24.010,18.100 25.780,18.100 C27.550,18.100 28.989,16.665 28.989,14.900 ZM41.824,27.700 C41.824,25.935 40.385,24.500 38.616,24.500 C36.846,24.500 35.407,25.935 35.407,27.700 C35.407,29.465 36.846,30.901 38.616,30.901 C40.385,30.901 41.824,29.465 41.824,27.700 Z"/></g></svg>