<svg version="1.1" baseProfile="full" xmlns="http://www.w3.org/2000/svg" xmlns:xlink="http://www.w3.org/1999/xlink" xmlns:ev="http://www.w3.org/2001/xml-events" width="40" height="40" viewBox="0 0 40 40"><g id="logo_enregistrement" ><path fill-rule="evenodd" d="M20.000,40.000 C8.972,40.000 -0.000,31.028 -0.000,20.000 C-0.000,8.972 8.972,0.000 20.000,0.000 C31.028,0.000 40.000,8.972 40.000,20.000 C40.000,31.028 31.028,40.000 20.000,40.000 ZM20.000,2.000 C10.075,2.000 2.000,10.075 2.000,20.000 C2.000,29.925 10.075,38.000 20.000,38.000 C29.925,38.000 38.000,29.925 38.000,20.000 C38.000,10.075 29.925,2.000 20.000,2.000 ZM20.000,23.000 C18.343,23.000 17.000,21.657 17.000,20.000 C17.000,18.343 18.343,17.000 20.000,17.000 C21.657,17.000 23.000,18.343 23.000,20.000 C23.000,21.657 21.657,23.000 20.000,23.000 Z"/></g></svg>