<svg version="1.1" baseProfile="full" xmlns="http://www.w3.org/2000/svg" xmlns:xlink="http://www.w3.org/1999/xlink" xmlns:ev="http://www.w3.org/2001/xml-events" width="28" height="19" viewBox="0 0 56 39"><g id="logo_cam" ><path d="M28.000,0.019 C28.000,0.019 27.936,0.019 27.936,0.019 C27.936,0.019 10.367,1.376 10.367,1.376 C4.647,1.412 0.005,6.024 0.005,11.689 C0.005,11.689 0.005,26.345 0.005,26.345 C0.005,32.010 4.647,36.623 10.367,36.659 C10.367,36.659 27.872,38.011 27.872,38.011 C27.872,38.011 28.000,38.016 28.000,38.016 C33.505,38.016 38.025,33.775 38.401,28.424 C38.401,28.424 55.995,32.774 55.995,32.774 C55.995,32.774 55.995,5.261 55.995,5.261 C55.995,5.261 38.401,9.610 38.401,9.610 C38.025,4.259 33.505,0.019 28.000,0.019 ZM35.136,27.702 C35.136,31.573 31.968,34.726 28.061,34.759 C28.061,34.759 10.563,33.407 10.563,33.407 C10.563,33.407 10.434,33.402 10.434,33.402 C6.500,33.402 3.298,30.236 3.298,26.345 C3.298,26.345 3.298,11.689 3.298,11.689 C3.298,7.798 6.500,4.633 10.434,4.633 C10.434,4.633 10.499,4.633 10.499,4.633 C10.499,4.633 28.061,3.276 28.061,3.276 C31.968,3.308 35.136,6.461 35.136,10.332 C35.136,10.332 35.136,27.702 35.136,27.702 ZM52.701,28.602 C52.701,28.602 38.430,25.074 38.430,25.074 C38.430,25.074 38.430,12.960 38.430,12.960 C38.430,12.960 52.701,9.432 52.701,9.432 C52.701,9.432 52.701,28.602 52.701,28.602 Z"/></g></svg>