<svg version="1.1" baseProfile="full" xmlns="http://www.w3.org/2000/svg" xmlns:xlink="http://www.w3.org/1999/xlink" xmlns:ev="http://www.w3.org/2001/xml-events" width="48" height="54" viewBox="0 0 48 54"><g id="logo_5" ><path d="M12.163,35.100 C12.911,35.100 13.518,34.496 13.518,33.750 C13.518,33.750 13.518,32.378 13.518,32.378 C13.518,30.476 17.573,28.350 23.000,28.350 C28.427,28.350 32.483,30.476 32.483,32.378 C32.483,32.378 32.483,33.750 32.483,33.750 C32.483,34.496 33.089,35.100 33.837,35.100 C34.585,35.100 35.192,34.496 35.192,33.750 C35.192,33.750 35.192,32.378 35.192,32.378 C35.192,29.169 31.517,26.627 26.247,25.880 C28.364,24.300 29.773,21.197 29.773,17.550 C29.773,13.828 26.735,10.800 23.000,10.800 C19.266,10.800 16.227,13.828 16.227,17.550 C16.227,21.197 17.636,24.300 19.753,25.880 C14.484,26.627 10.808,29.169 10.808,32.378 C10.808,32.378 10.808,33.750 10.808,33.750 C10.808,34.496 11.415,35.100 12.163,35.100 ZM18.936,17.550 C18.936,15.317 20.759,13.500 23.000,13.500 C25.241,13.500 27.064,15.317 27.064,17.550 C27.064,21.209 25.203,24.300 23.000,24.300 C20.798,24.300 18.936,21.209 18.936,17.550 ZM41.965,0.001 C41.965,0.001 4.035,0.001 4.035,0.001 C1.794,0.001 -0.029,1.817 -0.029,4.051 C-0.029,4.051 -0.029,49.949 -0.029,49.949 C-0.029,52.183 1.794,53.999 4.035,53.999 C4.035,53.999 41.965,53.999 41.965,53.999 C44.206,53.999 46.029,52.183 46.029,49.949 C46.029,49.949 46.029,4.051 46.029,4.051 C46.029,1.817 44.206,0.001 41.965,0.001 ZM43.320,49.949 C43.320,50.694 42.712,51.299 41.965,51.299 C41.965,51.299 4.035,51.299 4.035,51.299 C3.288,51.299 2.680,50.694 2.680,49.949 C2.680,49.949 2.680,4.051 2.680,4.051 C2.680,3.306 3.288,2.701 4.035,2.701 C4.035,2.701 41.965,2.701 41.965,2.701 C42.712,2.701 43.320,3.306 43.320,4.051 C43.320,4.051 43.320,49.949 43.320,49.949 ZM39.256,5.400 C39.256,5.400 6.744,5.400 6.744,5.400 C5.996,5.400 5.390,6.004 5.390,6.750 C5.390,6.750 5.390,39.150 5.390,39.150 C5.390,39.896 5.996,40.500 6.744,40.500 C6.744,40.500 39.256,40.500 39.256,40.500 C40.004,40.500 40.610,39.896 40.610,39.150 C40.610,39.150 40.610,6.750 40.610,6.750 C40.610,6.004 40.004,5.400 39.256,5.400 ZM37.901,37.800 C37.901,37.800 8.099,37.800 8.099,37.800 C8.099,37.800 8.099,8.100 8.099,8.100 C8.099,8.100 37.901,8.100 37.901,8.100 C37.901,8.100 37.901,37.800 37.901,37.800 Z"/></g></svg>