<svg version="1.1" baseProfile="full" xmlns="http://www.w3.org/2000/svg" xmlns:xlink="http://www.w3.org/1999/xlink" xmlns:ev="http://www.w3.org/2001/xml-events" width="17" height="17" viewBox="0 0 17 17"><g id="logo_edit_title" ><path fill-rule="evenodd"  fill="rgb( 165, 165, 165 )" d="M16.578,4.197 C16.578,4.197 14.789,5.985 14.789,5.985 C14.579,6.196 14.237,6.196 14.026,5.985 C14.026,5.985 10.998,2.957 10.998,2.957 C10.787,2.745 10.787,2.405 10.998,2.194 C10.998,2.194 12.787,0.405 12.787,0.405 C13.261,-0.069 14.029,-0.069 14.503,0.405 C14.503,0.405 16.578,2.480 16.578,2.480 C17.052,2.954 17.052,3.722 16.578,4.197 ZM13.378,7.397 C13.378,7.397 7.474,13.300 7.474,13.300 C7.264,13.511 6.922,13.511 6.711,13.300 C6.711,13.300 3.683,10.272 3.683,10.272 C3.472,10.060 3.472,9.720 3.683,9.509 C3.683,9.509 9.587,3.606 9.587,3.606 C9.797,3.395 10.139,3.394 10.350,3.606 C10.350,3.606 13.378,6.634 13.378,6.634 C13.588,6.844 13.588,7.186 13.378,7.397 ZM5.988,14.446 C5.953,14.480 5.914,14.508 5.872,14.526 C5.872,14.526 5.792,14.554 5.792,14.554 C5.792,14.554 1.495,16.025 1.495,16.025 C1.495,16.025 1.416,16.052 1.416,16.052 C1.285,16.083 1.141,16.047 1.039,15.945 C0.936,15.843 0.900,15.699 0.931,15.567 C0.931,15.567 0.958,15.489 0.958,15.489 C0.958,15.489 2.430,11.191 2.430,11.191 C2.430,11.191 2.457,11.111 2.457,11.111 C2.476,11.069 2.503,11.030 2.537,10.995 C2.695,10.837 2.951,10.837 3.110,10.995 C3.110,10.995 5.988,13.874 5.988,13.874 C6.146,14.032 6.146,14.288 5.988,14.446 Z"/></g></svg>