<svg version="1.1" baseProfile="full" xmlns="http://www.w3.org/2000/svg" xmlns:xlink="http://www.w3.org/1999/xlink" xmlns:ev="http://www.w3.org/2001/xml-events" width="20" height="22" viewBox="0 0 20 22"><g id="logout_logo" ><path fill-rule="evenodd"  fill="rgb( 63, 67, 77 )" d="M9.867,21.565 C4.609,21.565 0.346,17.134 0.346,11.669 C0.346,8.240 2.026,5.219 4.574,3.443 C4.620,3.411 4.668,3.378 4.714,3.346 C4.894,3.240 5.103,3.180 5.325,3.180 C6.008,3.180 6.564,3.756 6.564,4.469 C6.564,4.873 6.384,5.235 6.102,5.470 C6.033,5.515 5.964,5.561 5.897,5.610 C4.036,6.929 2.814,9.151 2.814,11.669 C2.814,15.718 5.972,18.999 9.867,18.999 C13.762,18.999 16.919,15.718 16.919,11.669 C16.919,9.150 15.696,6.927 13.834,5.609 C13.767,5.561 13.698,5.515 13.631,5.470 C13.350,5.235 13.170,4.873 13.170,4.469 C13.170,3.756 13.725,3.180 14.409,3.180 C14.631,3.180 14.838,3.239 15.016,3.346 C15.064,3.378 15.111,3.410 15.159,3.443 C17.708,5.219 19.385,8.240 19.385,11.669 C19.385,17.134 15.123,21.565 9.867,21.565 ZM9.880,11.583 C9.880,11.583 9.853,11.583 9.853,11.583 C9.160,11.583 8.597,10.997 8.597,10.277 C8.597,10.277 8.597,4.458 8.597,4.458 C8.597,4.458 8.597,1.908 8.597,1.908 C8.597,1.893 8.597,1.877 8.599,1.861 C8.622,1.162 9.175,0.603 9.853,0.603 C9.853,0.603 9.880,0.603 9.880,0.603 C10.558,0.603 11.111,1.162 11.134,1.861 C11.134,1.877 11.134,1.893 11.134,1.908 C11.134,1.908 11.134,4.458 11.134,4.458 C11.134,4.458 11.134,10.277 11.134,10.277 C11.134,10.997 10.573,11.583 9.880,11.583 Z"/></g></svg>