<svg version="1.1" baseProfile="full" xmlns="http://www.w3.org/2000/svg" xmlns:xlink="http://www.w3.org/1999/xlink" xmlns:ev="http://www.w3.org/2001/xml-events" width="22" height="24" viewBox="0 0 22 24"><g id="logo_fichiers" ><path d="M18.765,16.235 C18.765,16.625 18.449,16.941 18.059,16.941 C18.059,16.941 15.235,16.941 15.235,16.941 C14.846,16.941 14.529,17.258 14.529,17.647 C14.529,17.647 14.529,20.471 14.529,20.471 C14.529,20.861 14.214,21.177 13.824,21.177 C13.433,21.177 13.118,20.861 13.118,20.471 C13.118,20.471 13.118,17.647 13.118,17.647 C13.118,16.479 14.068,15.530 15.235,15.530 C15.235,15.530 18.059,15.530 18.059,15.530 C18.449,15.530 18.765,15.846 18.765,16.235 ZM17.353,0.706 C17.353,0.316 17.037,-0.000 16.647,-0.000 C16.647,-0.000 2.529,-0.000 2.529,-0.000 C1.361,-0.000 0.412,0.950 0.412,2.117 C0.412,2.117 0.412,19.059 0.412,19.059 C0.412,19.449 0.727,19.765 1.117,19.765 C1.508,19.765 1.823,19.449 1.823,19.059 C1.823,19.059 1.823,2.117 1.823,2.117 C1.823,1.728 2.140,1.412 2.529,1.412 C2.529,1.412 16.647,1.412 16.647,1.412 C17.037,1.412 17.353,1.095 17.353,0.706 ZM21.589,4.941 C21.589,4.941 21.589,17.647 21.589,17.647 C21.589,17.834 21.514,18.014 21.382,18.146 C21.382,18.146 15.735,23.793 15.735,23.793 C15.602,23.926 15.423,24.000 15.235,24.000 C15.235,24.000 5.353,24.000 5.353,24.000 C4.185,24.000 3.235,23.050 3.235,21.883 C3.235,21.883 3.235,4.941 3.235,4.941 C3.235,3.773 4.185,2.823 5.353,2.823 C5.353,2.823 19.471,2.823 19.471,2.823 C20.639,2.823 21.589,3.773 21.589,4.941 ZM20.177,4.941 C20.177,4.552 19.860,4.235 19.471,4.235 C19.471,4.235 5.353,4.235 5.353,4.235 C4.963,4.235 4.647,4.552 4.647,4.941 C4.647,4.941 4.647,21.883 4.647,21.883 C4.647,22.272 4.963,22.589 5.353,22.589 C5.353,22.589 14.943,22.589 14.943,22.589 C14.943,22.589 20.177,17.355 20.177,17.355 C20.177,17.355 20.177,4.941 20.177,4.941 Z"/></g></svg>