<svg version="1.1" baseProfile="full" xmlns="http://www.w3.org/2000/svg" xmlns:xlink="http://www.w3.org/1999/xlink" xmlns:ev="http://www.w3.org/2001/xml-events" width="64" height="53" viewBox="0 0 64 53"><g id="logo_2" ><path d="M20.934,0.577 C20.531,0.580 20.145,0.742 19.859,1.028 C19.859,1.028 0.975,19.956 0.975,19.956 C0.370,20.558 0.366,21.538 0.967,22.145 C1.567,22.751 2.545,22.755 3.151,22.153 C3.153,22.150 3.156,22.148 3.159,22.145 C3.159,22.145 20.950,4.311 20.950,4.311 C20.950,4.311 38.742,22.145 38.742,22.145 C39.343,22.751 40.321,22.755 40.926,22.153 C41.531,21.551 41.535,20.571 40.934,19.964 C40.932,19.961 40.929,19.959 40.926,19.956 C40.926,19.956 36.334,15.352 36.334,15.352 C36.338,15.288 36.338,15.224 36.334,15.159 C36.334,15.159 36.334,7.418 36.334,7.418 C36.343,6.564 35.660,5.865 34.808,5.856 C34.792,5.856 34.776,5.856 34.760,5.856 C33.915,5.874 33.242,6.570 33.251,7.418 C33.251,7.418 33.251,12.262 33.251,12.262 C33.251,12.262 22.042,1.028 22.042,1.028 C21.749,0.734 21.349,0.572 20.934,0.577 ZM4.251,25.090 C3.399,25.099 2.716,25.798 2.725,26.652 C2.725,26.652 2.725,38.530 2.725,38.530 C2.725,38.530 2.725,43.681 2.725,43.681 C2.725,44.534 3.415,45.226 4.267,45.226 C4.267,45.226 9.405,45.226 9.405,45.226 C9.405,45.226 32.480,45.226 32.480,45.226 C32.480,45.226 37.618,45.226 37.618,45.226 C38.469,45.226 39.160,44.534 39.160,43.681 C39.160,43.681 39.160,26.652 39.160,26.652 C39.172,25.798 38.491,25.097 37.640,25.085 C36.789,25.072 36.089,25.755 36.077,26.608 C36.077,26.622 36.077,26.637 36.077,26.652 C36.077,26.652 36.077,42.135 36.077,42.135 C36.077,42.135 32.480,42.135 32.480,42.135 C32.480,42.135 9.405,42.135 9.405,42.135 C9.405,42.135 5.808,42.135 5.808,42.135 C5.808,42.135 5.808,38.530 5.808,38.530 C5.808,38.530 5.808,26.652 5.808,26.652 C5.817,25.798 5.134,25.099 4.283,25.090 C4.272,25.090 4.261,25.090 4.251,25.090 Z"/><path d="M55.826,44.526 C50.440,49.913 41.709,49.913 36.323,44.527 C30.936,39.141 30.936,30.409 36.322,25.022 C41.708,19.637 50.440,19.637 55.827,25.023 C61.213,30.409 61.212,39.141 55.826,44.526 ZM50.938,34.068 C50.765,33.895 50.535,33.790 50.291,33.775 C50.287,33.774 50.284,33.774 50.279,33.774 C50.279,33.774 47.209,33.774 47.209,33.774 C47.206,33.775 47.204,33.774 47.202,33.775 C47.198,33.775 47.195,33.775 47.192,33.775 C47.192,33.775 47.186,33.775 47.186,33.775 C47.132,33.771 47.087,33.718 47.085,33.678 C47.085,33.677 47.085,33.668 47.085,33.668 C47.085,33.666 47.085,33.660 47.085,33.658 C47.085,33.657 47.085,33.654 47.085,33.650 C47.085,33.650 47.088,30.559 47.088,30.559 C47.087,30.554 47.087,30.549 47.086,30.544 C47.066,30.309 46.963,30.087 46.796,29.920 C46.606,29.730 46.353,29.625 46.083,29.625 C45.553,29.625 45.112,30.038 45.077,30.566 C45.077,30.571 45.077,30.574 45.077,30.579 C45.077,30.579 45.077,33.648 45.077,33.648 C45.078,33.650 45.077,33.653 45.077,33.656 C45.078,33.657 45.078,33.663 45.078,33.664 C45.078,33.664 45.078,33.672 45.077,33.673 C45.074,33.728 45.032,33.771 44.978,33.775 C44.978,33.775 44.964,33.775 44.964,33.775 C44.960,33.776 44.957,33.775 44.953,33.775 C44.953,33.775 41.994,33.776 41.994,33.776 C41.994,33.776 41.861,33.775 41.861,33.775 C41.856,33.775 41.851,33.775 41.846,33.776 C41.330,33.817 40.925,34.256 40.925,34.775 C40.925,35.043 41.029,35.295 41.218,35.484 C41.407,35.673 41.658,35.776 41.929,35.777 C41.929,35.777 44.962,35.779 44.962,35.779 C44.967,35.780 44.967,35.780 44.973,35.780 C44.973,35.780 44.974,35.779 44.977,35.780 C45.031,35.783 45.077,35.834 45.078,35.889 C45.077,35.893 45.077,35.898 45.077,35.902 C45.077,35.902 45.078,38.998 45.078,38.998 C45.078,39.002 45.078,39.007 45.079,39.011 C45.097,39.248 45.200,39.470 45.368,39.639 C45.368,39.639 45.369,39.639 45.369,39.639 C45.559,39.829 45.809,39.933 46.077,39.932 C46.628,39.932 47.078,39.484 47.080,38.929 C47.080,38.929 47.082,35.934 47.082,35.934 C47.082,35.926 47.082,35.917 47.081,35.909 C47.081,35.904 47.079,35.899 47.079,35.895 C47.079,35.888 47.080,35.883 47.081,35.878 C47.089,35.825 47.134,35.785 47.189,35.785 C47.199,35.784 47.209,35.784 47.219,35.782 C47.219,35.782 50.150,35.786 50.150,35.786 C50.150,35.786 50.299,35.785 50.299,35.785 C50.304,35.785 50.308,35.785 50.314,35.784 C50.829,35.739 51.233,35.298 51.233,34.781 C51.233,34.511 51.128,34.258 50.938,34.068 Z"/></g></svg>