<svg version="1.1" baseProfile="full" xmlns="http://www.w3.org/2000/svg" xmlns:xlink="http://www.w3.org/1999/xlink" xmlns:ev="http://www.w3.org/2001/xml-events" width="43" height="43" viewBox="0 0 43 43"><g id="logo_add_people" ><path fill-rule="evenodd" d="M42.000,9.000 C42.000,9.000 36.000,9.000 36.000,9.000 C36.000,9.000 36.000,15.000 36.000,15.000 C36.000,15.552 35.552,16.000 35.000,16.000 C34.448,16.000 34.000,15.552 34.000,15.000 C34.000,15.000 34.000,9.000 34.000,9.000 C34.000,9.000 28.000,9.000 28.000,9.000 C27.448,9.000 27.000,8.552 27.000,8.000 C27.000,7.448 27.448,7.000 28.000,7.000 C28.000,7.000 34.000,7.000 34.000,7.000 C34.000,7.000 34.000,1.000 34.000,1.000 C34.000,0.448 34.448,-0.000 35.000,-0.000 C35.552,-0.000 36.000,0.448 36.000,1.000 C36.000,1.000 36.000,7.000 36.000,7.000 C36.000,7.000 42.000,7.000 42.000,7.000 C42.552,7.000 43.000,7.448 43.000,8.000 C43.000,8.552 42.552,9.000 42.000,9.000 ZM20.527,30.100 C27.875,31.145 32.000,34.701 32.000,39.191 C32.000,39.191 32.000,41.111 32.000,41.111 C32.000,42.155 31.857,43.000 31.111,43.000 C29.304,43.000 29.222,42.155 29.222,41.111 C29.222,41.111 29.222,39.191 29.222,39.191 C29.222,36.531 23.568,32.556 16.000,32.556 C8.433,32.556 2.778,36.531 2.778,39.191 C2.778,39.191 2.778,41.111 2.778,41.111 C2.778,42.155 3.043,43.000 2.000,43.000 C-0.120,43.000 0.000,42.155 0.000,41.111 C0.000,41.111 0.000,39.191 0.000,39.191 C0.000,34.701 4.125,31.145 11.473,30.100 C8.521,27.888 6.555,23.547 6.555,18.444 C6.555,13.237 10.793,9.000 16.000,9.000 C21.207,9.000 25.444,13.237 25.444,18.444 C25.444,23.547 23.479,27.888 20.527,30.100 ZM16.000,11.444 C12.323,11.444 9.333,14.435 9.333,18.112 C9.333,24.134 12.386,29.224 16.000,29.224 C19.614,29.224 22.667,24.134 22.667,18.112 C22.667,14.435 19.677,11.444 16.000,11.444 Z"/></g></svg>