<svg version="1.1" baseProfile="full" xmlns="http://www.w3.org/2000/svg" xmlns:xlink="http://www.w3.org/1999/xlink" xmlns:ev="http://www.w3.org/2001/xml-events" width="36" height="36" viewBox="0 0 36 36"><g id="logo_discussion" ><path d="M18.557,32.782 C24.142,32.782 28.482,30.248 31.274,25.364 C34.067,20.480 34.067,15.413 31.274,10.529 C28.482,5.645 24.142,3.111 18.557,3.111 C12.971,3.111 8.632,5.645 5.839,10.529 C3.046,15.413 3.207,20.116 6.000,25.000 C7.422,27.486 7.593,29.895 4.716,32.029 C4.573,32.135 4.513,32.322 4.570,32.494 C4.625,32.667 4.783,32.782 4.962,32.782 C4.962,32.782 18.429,32.782 18.429,32.782 M18.429,35.448 C18.429,35.448 2.962,35.448 2.962,35.448 C2.068,35.448 1.280,34.872 1.001,34.015 C0.722,33.157 1.018,32.221 1.739,31.686 C5.009,29.260 3.906,27.331 3.544,26.697 C0.457,21.300 0.457,14.593 3.544,9.195 C6.631,3.798 12.383,0.445 18.557,0.445 C24.731,0.445 30.483,3.798 33.570,9.195 C36.657,14.593 36.657,21.300 33.570,26.697 C30.483,32.095 24.731,35.448 18.557,35.448 "/></g></svg>