<svg width="25px" height="34px" viewBox="0 0 25 34" version="1.1" xmlns="http://www.w3.org/2000/svg" xmlns:xlink="http://www.w3.org/1999/xlink" xmlns:sketch="http://www.bohemiancoding.com/sketch/ns">	<g id="logo_visio">	    <g id="Page-1" stroke="none" stroke-width="1" fill="FFF" fill-rule="evenodd" sketch:type="MSPage">	        <g id="Landing" sketch:type="MSArtboardGroup" transform="translate(-37.000000, -23.000000)" fill="#FFF">	            <g id="Header" sketch:type="MSLayerGroup" transform="translate(37.000000, 23.000000)">	                <path d="M24.0826619,16.7120016 C23.4627478,18.1753614 22.6107662,19.4402634 21.5261834,20.5067076 C20.4416006,21.5742187 19.1761651,22.4256669 17.7298769,23.0626525 C16.2841222,23.6996382 14.7348707,24.0175975 13.0821223,24.0175975 L19.6925823,30.3165001 C20.0366826,30.6264571 20.2089995,30.987629 20.2089995,31.4010828 C20.2089995,31.8140032 20.0713594,32.1933137 19.7960792,32.5368805 C19.519732,32.8815143 19.15856,33.0618335 18.7114964,33.0789052 C18.2633658,33.0965103 17.8675171,32.9498009 17.5234168,32.6398439 L5.85174829,21.4877935 C5.67889791,21.3506869 5.4553661,21.1260881 5.18008587,20.8166646 C4.90427214,20.5067076 4.57777698,20.0420388 4.19899992,19.4226583 L4.19899992,31.4522978 C4.19899992,31.9004284 4.04428816,32.278672 3.73433115,32.588629 C3.42437415,32.8980525 3.04506359,33.0532977 2.59799996,33.0532977 C2.15040284,33.0532977 1.77162577,32.8980525 1.46166877,32.588629 C1.15224525,32.278672 0.997,31.9004284 0.997,31.4522978 L0.997,12.039173 C0.997,10.3869581 1.30695701,8.82970421 1.92687102,7.36634436 C2.54625154,5.9040515 3.39876668,4.63008019 4.48334946,3.5460309 C5.56793224,2.46144812 6.84083657,1.60146414 8.3047299,0.964478483 C9.76808975,0.327492828 11.3258771,0.009 12.9786255,0.009 C14.6313739,0.009 16.1886277,0.327492828 17.6525211,0.964478483 C19.1158809,1.60146414 20.3898522,2.46144812 21.474435,3.5460309 C22.5590178,4.63008019 23.4190018,5.9040515 24.0565209,7.36634436 C24.6935066,8.82970421 25.0119994,10.3869581 25.0119994,12.039173 C25.0119994,13.6913879 24.7020424,15.2491752 24.0826619,16.7120016 L24.0826619,16.7120016 Z M21.1127296,8.63124637 C20.6480608,7.56480221 20.0105417,6.62692886 19.2017726,5.81762631 C18.3924701,5.00939074 17.4540632,4.3718716 16.3876191,3.90720283 C15.3195744,3.44253407 14.1837767,3.20993294 12.9786255,3.20993294 C11.7729407,3.20993294 10.637143,3.44253407 9.57016539,3.90720283 C8.50265426,4.3718716 7.57278324,5.00939074 6.78108582,5.81762631 C5.98885492,6.62692886 5.36093858,7.56480221 4.89626981,8.63124637 C4.43160105,9.6987575 4.19899992,10.8345552 4.19899992,12.039173 C4.19899992,13.2443242 4.43160105,14.3801219 4.89626981,15.4465661 C5.36093858,16.5140772 5.98885492,17.4434148 6.78108582,18.2351122 C7.57278324,19.0273431 8.50265426,19.6547259 9.57016539,20.1193947 C10.637143,20.5840635 11.7729407,20.8166646 12.9786255,20.8166646 C14.1837767,20.8166646 15.3195744,20.5840635 16.3876191,20.1193947 C17.4540632,19.6547259 18.3924701,19.0273431 19.2017726,18.2351122 C20.0105417,17.4434148 20.6480608,16.5140772 21.1127296,15.4465661 C21.5779318,14.3801219 21.8099995,13.2443242 21.8099995,12.039173 C21.8099995,10.8345552 21.5779318,9.6987575 21.1127296,8.63124637 L21.1127296,8.63124637 Z M16.2755864,12.4062133 L11.1610291,15.403887 C11.093276,15.4406977 11.0313913,15.4673721 10.9545689,15.4673721 C10.7534436,15.4673721 10.5907295,15.3062585 10.5907295,15.1067337 L10.5896625,15.1067337 L10.5896625,14.5140276 L10.5896625,14.0040123 L10.5896625,13.9415941 L10.5896625,10.0305875 L10.5896625,9.96870285 L10.5896625,9.69769052 L10.5896625,8.8681154 L10.5907295,8.8681154 C10.5907295,8.66965756 10.7534436,8.50747696 10.9545689,8.50747696 C11.0287238,8.50747696 11.093276,8.52988349 11.1546272,8.56669422 L16.2755864,11.5691693 C16.3977554,11.6689317 16.4745777,11.8199091 16.4745777,11.987958 C16.4745777,12.156007 16.3977554,12.3064509 16.2755864,12.4062133 L16.2755864,12.4062133 Z" id="Shape" sketch:type="MSShapeGroup"></path>	            </g>	        </g>	    </g>    </g></svg>