<svg version="1.1" baseProfile="full" xmlns="http://www.w3.org/2000/svg" xmlns:xlink="http://www.w3.org/1999/xlink" xmlns:ev="http://www.w3.org/2001/xml-events" width="36" height="41" viewBox="0 0 36 41"><g id="logo_notif" ><path fill="rgb( 165, 165, 165 )" d="M17.802,0.497 C8.250,0.497 0.540,8.266 0.540,17.890 C0.540,17.890 0.540,31.804 0.540,31.804 C0.540,33.717 2.094,35.282 3.992,35.282 C3.992,35.282 12.623,35.282 12.623,35.282 C12.623,38.181 14.925,40.500 17.802,40.500 C20.679,40.500 22.981,38.181 22.981,35.282 C22.981,35.282 31.612,35.282 31.612,35.282 C33.511,35.282 35.064,33.717 35.064,31.804 C35.064,31.804 35.064,17.890 35.064,17.890 C35.064,8.266 27.354,0.497 17.802,0.497 ZM32.206,30.790 C32.206,31.703 31.513,32.402 30.606,32.402 C30.606,32.402 5.000,32.402 5.000,32.402 C4.093,32.402 3.400,31.703 3.400,30.790 C3.400,30.790 3.400,17.890 3.400,17.890 C3.400,9.881 9.854,3.378 17.803,3.378 C25.751,3.378 32.206,9.881 32.206,17.890 C32.206,17.890 32.206,30.790 32.206,30.790 Z"/></g></svg>