<svg version="1.1" baseProfile="full" xmlns="http://www.w3.org/2000/svg" xmlns:xlink="http://www.w3.org/1999/xlink" xmlns:ev="http://www.w3.org/2001/xml-events" width="47" height="52" viewBox="0 0 47 52"><g id="logo_4" ><path d="M33.666,25.657 C41.022,25.657 47.006,31.566 47.006,38.828 C47.006,46.091 41.022,51.999 33.666,51.999 C26.310,51.999 20.326,46.091 20.326,38.828 C20.326,37.694 20.488,36.600 20.762,35.549 C20.762,35.549 15.695,35.549 15.695,35.549 C15.695,35.549 15.695,47.228 15.695,47.228 C15.695,47.945 15.110,48.526 14.387,48.526 C14.387,48.526 1.308,48.526 1.308,48.526 C0.585,48.526 0.000,47.945 0.000,47.228 C0.000,47.228 0.000,8.298 0.000,8.298 C0.000,7.581 0.585,7.000 1.308,7.000 C1.308,7.000 10.000,7.000 10.000,7.000 C10.000,7.000 30.000,7.000 30.000,7.000 C30.000,7.000 40.546,7.000 40.546,7.000 C41.269,7.000 41.854,7.581 41.854,8.298 C41.854,8.298 41.854,21.274 41.854,21.274 C41.854,21.991 41.269,22.572 40.546,22.572 C40.546,22.572 28.774,22.572 28.774,22.572 C28.774,22.572 28.774,26.587 28.774,26.587 C30.291,25.994 31.938,25.657 33.666,25.657 ZM31.684,36.670 C31.684,36.670 31.684,37.013 31.684,37.013 C31.684,37.013 31.684,37.092 31.684,37.092 C31.684,37.092 31.684,42.033 31.684,42.033 C31.684,42.033 31.684,42.111 31.684,42.111 C31.684,42.111 31.684,42.755 31.684,42.755 C31.684,42.755 31.684,43.505 31.684,43.505 C31.684,43.505 31.685,43.505 31.685,43.505 C31.685,43.757 31.901,43.961 32.167,43.961 C32.269,43.961 32.363,43.932 32.440,43.881 C32.440,43.881 32.506,43.830 32.506,43.830 C32.506,43.830 37.291,40.092 37.291,40.092 C37.452,39.967 37.555,39.777 37.555,39.564 C37.555,39.352 37.452,39.162 37.291,39.036 C37.291,39.036 32.512,35.303 32.512,35.303 C32.512,35.303 32.432,35.241 32.432,35.241 C32.356,35.194 32.265,35.166 32.167,35.166 C31.901,35.166 31.685,35.371 31.685,35.623 C31.685,35.623 31.684,35.623 31.684,35.623 C31.684,35.623 31.684,36.670 31.684,36.670 ZM13.079,9.595 C13.079,9.595 2.616,9.595 2.616,9.595 C2.616,9.595 2.616,19.977 2.616,19.977 C2.616,19.977 13.079,19.977 13.079,19.977 C13.079,19.977 13.079,9.595 13.079,9.595 ZM13.079,22.572 C13.079,22.572 2.616,22.572 2.616,22.572 C2.616,22.572 2.616,32.954 2.616,32.954 C2.616,32.954 13.079,32.954 13.079,32.954 C13.079,32.954 13.079,22.572 13.079,22.572 ZM13.079,35.549 C13.079,35.549 2.616,35.549 2.616,35.549 C2.616,35.549 2.616,45.930 2.616,45.930 C2.616,45.930 13.079,45.930 13.079,45.930 C13.079,45.930 13.079,35.549 13.079,35.549 ZM26.159,9.595 C26.159,9.595 15.695,9.595 15.695,9.595 C15.695,9.595 15.695,19.977 15.695,19.977 C15.695,19.977 26.159,19.977 26.159,19.977 C26.159,19.977 26.159,9.595 26.159,9.595 ZM26.159,22.572 C26.159,22.572 15.695,22.572 15.695,22.572 C15.695,22.572 15.695,32.954 15.695,32.954 C15.695,32.954 21.744,32.954 21.744,32.954 C22.767,30.939 24.287,29.213 26.159,27.950 C26.159,27.950 26.159,22.572 26.159,22.572 ZM39.238,19.977 C39.238,19.977 39.238,9.595 39.238,9.595 C39.238,9.595 28.774,9.595 28.774,9.595 C28.774,9.595 28.774,19.977 28.774,19.977 C28.774,19.977 39.238,19.977 39.238,19.977 ZM9.000,6.000 C9.000,6.000 9.000,1.000 9.000,1.000 C9.000,0.448 9.448,0.000 10.000,0.000 C10.552,0.000 11.000,0.448 11.000,1.000 C11.000,1.000 11.000,6.000 11.000,6.000 C11.000,6.552 10.552,7.000 10.000,7.000 C9.448,7.000 9.000,6.552 9.000,6.000 ZM29.000,6.000 C29.000,6.000 29.000,1.000 29.000,1.000 C29.000,0.448 29.448,0.000 30.000,0.000 C30.552,0.000 31.000,0.448 31.000,1.000 C31.000,1.000 31.000,6.000 31.000,6.000 C31.000,6.552 30.552,7.000 30.000,7.000 C29.448,7.000 29.000,6.552 29.000,6.000 Z"/></g></svg>