<svg xmlns="http://www.w3.org/2000/svg" xmlns:xlink="http://www.w3.org/1999/xlink" width="17" height="32" viewBox="0 0 17 32">
	<g id="mic">
    	<path d="M8.5,21.17C5.75,21.17,3.53,18.95,3.53,16.2C3.53,16.2,3.53,4.94,3.53,4.94C3.53,2.2,5.75,-0.02,8.5,-0.02C11.24,-0.02,13.46,2.2,13.46,4.94C13.46,4.94,13.46,16.2,13.46,16.2C13.46,18.95,11.24,21.17,8.5,21.17C8.5,21.17,8.5,21.17,8.5,21.17M15.91,12.08C16.47,12.08,16.93,12.53,16.93,13.1C16.93,13.1,16.93,16.2,16.93,16.2C16.93,20.85,13.14,24.63,8.5,24.63C3.85,24.63,0.06,20.85,0.06,16.2C0.06,16.2,0.06,13.1,0.06,13.1C0.06,12.53,0.52,12.08,1.08,12.08C1.65,12.08,2.1,12.53,2.1,13.1C2.1,13.1,2.1,16.2,2.1,16.2C2.1,19.73,4.97,22.6,8.5,22.6C12.02,22.6,14.89,19.73,14.89,16.2C14.89,16.2,14.89,13.1,14.89,13.1C14.89,12.53,15.34,12.08,15.91,12.08C15.91,12.08,15.91,12.08,15.91,12.08M12.7,29.93C13.26,29.93,13.72,30.39,13.72,30.95C13.72,30.95,13.72,31.97,13.72,31.97C13.72,31.97,3.27,31.97,3.27,31.97C3.27,31.97,3.27,30.95,3.27,30.95C3.27,30.39,3.73,29.93,4.29,29.93C4.29,29.93,7.48,29.93,7.48,29.93C7.48,29.93,7.48,25.38,7.48,25.38C7.81,25.42,8.15,25.45,8.5,25.45C8.84,25.45,9.18,25.42,9.51,25.38C9.51,25.38,9.51,29.93,9.51,29.93C9.51,29.93,12.7,29.93,12.7,29.93C12.7,29.93,12.7,29.93,12.7,29.93" />
	</g>
</svg>