<svg version="1.1" baseProfile="full" xmlns="http://www.w3.org/2000/svg" xmlns:xlink="http://www.w3.org/1999/xlink" xmlns:ev="http://www.w3.org/2001/xml-events" width="53" height="53" viewBox="0 0 53 53"><g id="option_video" ><path fill-rule="evenodd" d="M26.500,53.000 C11.888,53.000 -0.000,41.112 -0.000,26.500 C-0.000,11.888 11.888,-0.000 26.500,-0.000 C41.112,-0.000 53.000,11.888 53.000,26.500 C53.000,41.112 41.112,53.000 26.500,53.000 ZM26.500,2.120 C13.057,2.120 2.120,13.057 2.120,26.500 C2.120,39.943 13.057,50.880 26.500,50.880 C39.943,50.880 50.880,39.943 50.880,26.500 C50.880,13.057 39.943,2.120 26.500,2.120 ZM34.642,29.333 C33.214,29.333 32.054,28.212 32.054,26.831 C32.054,25.449 33.214,24.328 34.642,24.328 C36.071,24.328 37.230,25.449 37.230,26.831 C37.230,28.212 36.071,29.333 34.642,29.333 ZM26.223,29.333 C24.794,29.333 23.635,28.212 23.635,26.831 C23.635,25.449 24.794,24.328 26.223,24.328 C27.652,24.328 28.810,25.449 28.810,26.831 C28.810,28.212 27.652,29.333 26.223,29.333 ZM17.803,29.333 C16.375,29.333 15.216,28.212 15.216,26.831 C15.216,25.449 16.375,24.328 17.803,24.328 C19.233,24.328 20.391,25.449 20.391,26.831 C20.391,28.212 19.233,29.333 17.803,29.333 Z"/></g></svg>