<?xml version="1.0" encoding="iso-8859-1"?>
<!-- Generator: Adobe Illustrator 16.0.0, SVG Export Plug-In . SVG Version: 6.00 Build 0)  -->
<!DOCTYPE svg PUBLIC "-//W3C//DTD SVG 1.1//EN" "http://www.w3.org/Graphics/SVG/1.1/DTD/svg11.dtd">
<svg version="1.1" id="Capa_1" xmlns="http://www.w3.org/2000/svg" xmlns:xlink="http://www.w3.org/1999/xlink" 
	 width="50" height="60" viewBox="0 0 443.137 443.137" style="enable-background:new 0 0 443.137 443.137;"
	 xml:space="preserve">
<g id="presta"> 
	<path d="M357.157,311.449c-3.277-7.836-11.162-12.856-18.69-15.945l-50.888-23.43l-24.446-20.615l-39.268,39.059l16.91,113.049
		c0.059,0.391-0.04,0.789-0.272,1.105l-17.725,24.26c-0.282,0.387-0.732,0.615-1.211,0.615s-0.929-0.229-1.211-0.615l-17.724-24.26
		c-0.232-0.316-0.331-0.715-0.272-1.105l16.91-113.051l-39.267-39.057l-24.446,20.615l-50.887,23.43
		c-7.529,3.089-14.977,7.977-18.691,15.945c0,0-55.311,131.688-25.311,131.688h321.8
		C412.469,443.137,357.157,311.449,357.157,311.449z"/>
	<path d="M97.342,180.588h14.642c6.937,0,12.581-5.645,12.581-12.581v-48.442c0-5.542-3.607-10.249-8.593-11.923
		c5.985-53.688,43.326-85.058,104.708-86.926l1.859,0.002c61.335,1.892,98.641,33.257,104.622,86.924
		c-4.985,1.674-8.593,6.381-8.593,11.923v48.442c0,6.937,5.645,12.581,12.581,12.581h14.642c6.938,0,12.581-5.645,12.581-12.581
		v-48.442c0-6.135-4.417-11.25-10.234-12.354c-2.96-29.883-14.245-54.973-33.122-73.262c-20.044-19.419-48.427-30.951-82.53-33.632
		c0,0-3.668-0.317-10.918-0.317s-10.915,0.317-10.915,0.317c-34.103,2.681-62.485,14.213-82.531,33.632
		c-18.88,18.289-30.166,43.379-33.127,73.262c-5.818,1.104-10.235,6.219-10.235,12.354v48.442
		C84.761,174.943,90.405,180.588,97.342,180.588z"/>
	<path d="M221.567,34.443c-65.459,0-92.337,33.767-91.762,90.195c0.882,81.316,39.717,129.806,91.762,129.806
		c52.044,0,90.88-48.49,91.764-129.806C313.897,68.211,287.023,34.443,221.567,34.443z"/>
	 
</g> 
</svg>
