<svg version="1.1" baseProfile="full" xmlns="http://www.w3.org/2000/svg" xmlns:xlink="http://www.w3.org/1999/xlink" xmlns:ev="http://www.w3.org/2001/xml-events" width="33" height="20" viewBox="0 0 33 20">
<g id="preview" ><path fill-rule="evenodd"
 d="M32.202,8.474 C32.851,9.408 32.852,10.614 32.205,11.548 C30.446,14.089 25.388,19.998 16.439,19.998 C7.562,19.998 2.467,14.095 0.689,11.557 C0.040,10.633 0.040,9.390 0.689,8.465 C2.468,5.927 7.563,0.024 16.439,0.024 C25.356,0.024 30.432,5.934 32.202,8.474 ZM21.882,10.011 C21.882,7.007 19.453,4.564 16.466,4.564 C13.479,4.564 11.049,7.007 11.049,10.011 C11.049,13.015 13.479,15.459 16.466,15.459 C19.453,15.459 21.882,13.015 21.882,10.011 Z"/>
</g></svg>