<svg version="1.1" baseProfile="full" xmlns="http://www.w3.org/2000/svg" xmlns:xlink="http://www.w3.org/1999/xlink" xmlns:ev="http://www.w3.org/2001/xml-events" width="44" height="32" viewBox="0 0 44 32"><g id="share_screen" ><path fill-rule="evenodd" d="M40.700,31.400 C40.700,31.400 3.300,31.400 3.300,31.400 C1.480,31.400 -0.000,29.920 -0.000,28.100 C-0.000,28.100 -0.000,3.900 -0.000,3.900 C-0.000,2.080 1.480,0.600 3.300,0.600 C3.300,0.600 40.700,0.600 40.700,0.600 C42.520,0.600 44.000,2.080 44.000,3.900 C44.000,3.900 44.000,28.100 44.000,28.100 C44.000,29.920 42.520,31.400 40.700,31.400 ZM41.800,3.900 C41.800,3.294 41.306,2.800 40.700,2.800 C40.700,2.800 3.300,2.800 3.300,2.800 C2.694,2.800 2.200,3.294 2.200,3.900 C2.200,3.900 2.200,24.800 2.200,24.800 C2.200,24.800 41.800,24.800 41.800,24.800 C41.800,24.800 41.800,3.900 41.800,3.900 ZM41.800,27.000 C41.800,27.000 2.200,27.000 2.200,27.000 C2.200,27.000 2.200,28.100 2.200,28.100 C2.200,28.706 2.694,29.200 3.300,29.200 C3.300,29.200 40.700,29.200 40.700,29.200 C41.306,29.200 41.800,28.706 41.800,28.100 C41.800,28.100 41.800,27.000 41.800,27.000 ZM21.450,7.873 C21.840,7.482 22.473,7.482 22.864,7.873 C22.864,7.873 27.107,12.115 27.107,12.115 C27.497,12.506 27.497,13.139 27.107,13.529 C26.716,13.920 26.083,13.920 25.692,13.529 C25.692,13.529 22.157,9.994 22.157,9.994 C22.157,9.994 18.621,13.529 18.621,13.529 C18.231,13.920 17.598,13.920 17.207,13.529 C16.817,13.139 16.817,12.506 17.207,12.115 C17.207,12.115 21.450,7.873 21.450,7.873 ZM22.157,13.237 C22.709,13.237 23.157,13.684 23.157,14.236 C23.157,14.236 23.157,21.352 23.157,21.352 C23.157,21.352 21.157,21.352 21.157,21.352 C21.157,21.352 21.157,14.236 21.157,14.236 C21.157,13.684 21.604,13.237 22.157,13.237 Z"/></g></svg>