<svg xmlns="http://www.w3.org/2000/svg" xmlns:xlink="http://www.w3.org/1999/xlink" width="24" height="24" viewBox="0 0 49 49">
	<g id="star_rate">
    	<path d="M 46.27 17.07 C 47.38 17.22, 48.24 18.2, 48.24 19.4 C 48.24 20.11, 47.93 20.75, 47.45 21.19 L 47.15 21.41 L 47.15 21.41 L 37.5 28.73 C 37.41 28.79, 37.32 28.86, 37.24 28.93 C 36.47 29.57, 35.97 30.57, 35.97 31.68 C 35.97 31.97, 36.01 32.26, 36.07 32.53 C 36.11 32.69, 36.16 32.85, 36.22 33 L 39.94 44.92 C 39.95 44.96, 39.96 44.99, 39.97 45.03 C 40.04 45.25, 40.07 45.48, 40.07 45.73 C 40.07 47.02, 39.06 48.08, 37.82 48.08 C 37.4 48.08, 37 47.95, 36.66 47.74 C 36.65 47.73, 36.65 47.73, 36.64 47.73 L 36.37 47.52 L 26.74 40.21 C 26.74 40.2, 26.73 40.2, 26.73 40.2 C 26.62 40.11, 26.51 40.02, 26.39 39.94 C 25.87 39.6, 25.25 39.4, 24.58 39.4 C 23.9 39.4, 23.26 39.61, 22.72 39.98 C 22.65 40.03, 22.58 40.09, 22.51 40.14 L 12.82 47.48 C 12.82 47.48, 12.82 47.48, 12.81 47.49 L 12.43 47.78 C 12.1 47.98, 11.71 48.09, 11.31 48.09 C 10.07 48.09, 9.06 47.04, 9.06 45.74 C 9.06 45.51, 9.09 45.28, 9.15 45.07 L 9.18 44.98 C 9.18 44.97, 9.19 44.95, 9.2 44.94 L 12.9 33.07 C 12.97 32.88, 13.04 32.69, 13.08 32.48 C 13.14 32.23, 13.17 31.96, 13.17 31.68 C 13.17 30.47, 12.58 29.4, 11.68 28.77 L 11.68 28.77 L 1.92 21.34 C 1.89 21.32, 1.85 21.29, 1.82 21.26 C 1.28 20.84, 0.93 20.16, 0.93 19.4 C 0.93 18.21, 1.77 17.23, 2.86 17.07 L 3.5 17.07 L 15.43 17.07 L 15.43 17.05 C 16.87 17.05, 18.09 16.11, 18.58 14.8 C 18.63 14.68, 18.66 14.55, 18.7 14.43 C 18.7 14.42, 18.7 14.41, 18.7 14.41 L 22.43 2.52 L 22.44 2.52 C 22.72 1.56, 23.57 0.87, 24.58 0.87 C 25.53 0.87, 26.34 1.48, 26.67 2.35 L 26.77 2.65 L 30.45 14.46 C 30.48 14.56, 30.51 14.67, 30.55 14.77 C 31.03 16.1, 32.26 17.05, 33.71 17.05 L 33.71 17.07 L 45.71 17.07 L 46.27 17.07 Z" />
	</g>
</svg>