<svg version="1.1" baseProfile="full" xmlns="http://www.w3.org/2000/svg" xmlns:xlink="http://www.w3.org/1999/xlink" xmlns:ev="http://www.w3.org/2001/xml-events" width="17" height="17" viewBox="0 0 17 17"><g id="star"><path fill-rule="evenodd"  fill="rgb( 165, 165, 165 )" d="M12.196,16.577 C12.196,16.577 7.841,14.175 7.841,14.175 C7.841,14.175 3.486,16.576 3.486,16.576 C3.050,16.816 2.763,16.607 2.844,16.105 C2.844,16.105 3.678,11.006 3.678,11.006 C3.678,11.006 0.175,7.424 0.175,7.424 C-0.175,7.066 -0.064,6.714 0.427,6.641 C0.427,6.641 5.261,5.904 5.261,5.904 C5.261,5.904 7.452,1.246 7.452,1.246 C7.667,0.789 8.016,0.789 8.231,1.246 C8.231,1.246 10.421,5.904 10.421,5.904 C10.421,5.904 15.255,6.641 15.255,6.641 C15.744,6.714 15.857,7.066 15.507,7.424 C15.507,7.424 12.004,11.006 12.004,11.006 C12.004,11.006 12.838,16.105 12.838,16.105 C12.919,16.607 12.632,16.817 12.196,16.577 Z"/></g></svg>